<svg width="843" height="212" viewBox="0 0 843 212" fill="none" xmlns="http://www.w3.org/2000/svg">
<path d="M300.947 24.4228C261.009 23.7941 36.3778 22.8384 21.3418 27.1954C6.30583 31.5523 4.70621 42.1147 4.70621 55.7137L4.70621 104.169C4.70621 113.147 0.867238 154.076 4.70621 180.746C8.54518 207.416 30.6193 205.699 50.7739 207.68C70.9285 209.66 159.545 207.68 204.973 207.68H365.57C395.961 207.68 468.902 209 496.734 209L736.35 209C777.939 209 787.536 198.702 787.536 195.137V137.044V82.1197C787.536 74.594 851.016 13.2494 837.886 4.10538C827.649 -3.02419 696.041 26.6673 679.086 26.6673C662.13 26.6673 542.162 21.6502 512.73 24.4228C483.298 27.1954 338.371 25.0118 300.947 24.4228Z" fill="white" stroke="#3B3B3B" stroke-width="5"/>
</svg>
