<svg width="895" height="426" viewBox="0 0 895 426" fill="none" xmlns="http://www.w3.org/2000/svg">
<path d="M556.921 420.117C601.765 421.534 853.994 423.689 870.877 413.866C887.76 404.044 889.556 380.231 889.556 349.573V240.335C889.556 220.095 893.867 127.823 889.556 67.6974C885.246 7.57181 860.46 11.4413 837.829 6.9765C815.198 2.51175 715.695 6.9765 664.686 6.9765H484.359C450.234 6.9765 368.332 4 337.08 4H68.0269C21.3287 4 10.5522 27.2168 10.5522 35.2534V166.22V290.043C10.5522 307.009 -4.19055 383.429 10.5522 404.044C22.0471 420.117 113.288 415.057 132.327 415.057C151.365 415.057 286.072 426.367 319.12 420.117C352.168 413.866 514.899 418.789 556.921 420.117Z" fill="#008CFF" stroke="#3B3B3B" stroke-width="7"/>
</svg>
