<svg width="1600" height="1454" viewBox="0 0 1600 1454" fill="none" xmlns="http://www.w3.org/2000/svg">
<rect y="1311.32" width="1600" height="141.984" fill="#C5F4A8"/>
<path fill-rule="evenodd" clip-rule="evenodd" d="M291.104 1383.27C187.237 1397.43 55.5468 1415.37 0 1356.85V0H1600V1453C1492.41 1416.31 1238.39 1345.72 1082.96 1356.85C987.29 1363.7 918.974 1375.46 862.073 1385.26C803.424 1395.36 756.902 1403.37 705.053 1401.76C662.624 1400.45 615.438 1394.22 567.447 1387.89H567.446C499.891 1378.98 430.74 1369.86 371.014 1373.93C348.282 1375.48 320.833 1379.22 291.104 1383.27Z" fill="#AFE0F9"/>
<ellipse cx="17.6657" cy="11.6106" rx="17.6657" ry="11.6106" transform="matrix(0.733411 -0.679786 0.671814 0.74072 1308.28 552.894)" fill="#8ACDEE"/>
<ellipse cx="34.973" cy="11.6079" rx="34.973" ry="11.6079" transform="matrix(-0.71871 -0.69531 0.687474 -0.726209 1579.25 359.322)" fill="#8ACDEE"/>
<ellipse cx="6.68596" cy="7.11345" rx="6.68596" ry="7.11345" transform="matrix(0.958786 -0.284129 0.278504 0.960435 1198.46 1271.7)" fill="#8ACDEE"/>
<ellipse cx="21.76" cy="7.11345" rx="21.76" ry="7.11345" transform="matrix(-0.958786 0.284129 0.278504 0.960435 60.0254 1142.95)" fill="#8ACDEE"/>
<ellipse cx="11.701" cy="23.5515" rx="11.701" ry="23.5515" transform="matrix(-0.790324 0.61269 0.60437 0.796704 515.483 1274.92)" fill="#8ACDEE"/>
<ellipse cx="13.7369" cy="12.5211" rx="13.7369" ry="12.5211" transform="matrix(-0.935583 -0.353107 -0.346441 0.938072 957.437 345.086)" fill="#8ACDEE"/>
<path d="M565.177 148.252C561.843 157.279 565.643 167.051 573.663 170.079C581.684 173.106 590.888 168.242 594.222 159.214C597.556 150.187 593.757 140.415 585.736 137.388C577.716 134.361 568.511 139.225 565.177 148.252Z" fill="#8ACDEE"/>
<path d="M457.868 773.642C452.693 787.653 456.968 802.209 467.417 806.152C477.865 810.095 490.53 801.934 495.705 787.922C500.879 773.911 496.604 759.355 486.156 755.412C475.707 751.469 463.042 759.63 457.868 773.642Z" fill="#8ACDEE"/>
<ellipse cx="26.4592" cy="13.4761" rx="26.4592" ry="13.4761" transform="matrix(-0.984398 -0.175956 -0.17229 0.985046 1555.78 1332.12)" fill="#8ACDEE"/>
<ellipse cx="26.4589" cy="26.0686" rx="26.4589" ry="26.0686" transform="matrix(-0.984872 -0.173282 -0.169668 0.985501 668.068 1036.48)" fill="#8ACDEE"/>
<ellipse cx="36.3625" cy="20.1337" rx="36.3625" ry="20.1337" transform="matrix(-0.883583 0.468274 0.456945 0.889495 64.2593 415.278)" fill="#8ACDEE"/>
<ellipse cx="10.8892" cy="13.1421" rx="10.8892" ry="13.1421" transform="matrix(-0.902113 0.431501 0.423913 0.905703 115.777 690.818)" fill="#8ACDEE"/>
<ellipse cx="12.1226" cy="11.6106" rx="12.1226" ry="11.6106" transform="matrix(0.733487 -0.679703 0.671897 0.740645 537.833 186.175)" fill="#8ACDEE"/>
<ellipse cx="11.701" cy="23.5515" rx="11.701" ry="23.5515" transform="matrix(-0.790324 0.61269 0.60437 0.796704 1217.24 767.306)" fill="#8ACDEE"/>
<ellipse cx="35.2502" cy="11.5162" rx="35.2502" ry="11.5162" transform="matrix(-0.271743 -0.96237 0.96042 -0.278557 1327.48 1165.33)" fill="#8ACDEE"/>
<ellipse cx="9.42989" cy="12.9164" rx="9.42989" ry="12.9164" transform="matrix(-0.909507 -0.415688 -0.408261 0.912865 1269.52 847.55)" fill="#8ACDEE"/>
<path fill-rule="evenodd" clip-rule="evenodd" d="M1595.09 646.945C1580.8 643.931 1566.21 650.457 1560.34 663.475C1553.48 678.684 1561.11 696.993 1577.39 704.37C1583.19 706.999 1589.31 707.885 1595.09 707.249V646.945Z" fill="#8ACDEE"/>
</svg>
