<svg width="465" height="312" viewBox="0 0 465 312" fill="none" xmlns="http://www.w3.org/2000/svg">
<path fill-rule="evenodd" clip-rule="evenodd" d="M177 4C105.203 4 46.9998 62.203 46.9998 134V178C46.9998 185.681 47.666 193.207 48.9437 200.522L3.25607 255.209C1.45533 257.364 3.27463 260.564 6.02352 260.076L68.1203 249.057C91.3306 284.55 131.427 308 177 308H331C402.797 308 461 249.797 461 178V134C461 62.203 402.797 4 331 4H177Z" fill="#FFFDF5"/>
<path d="M56.2454 194.434L6.9999 249C1.6202 255.45 -0.500137 261 20 258C44.6474 254.393 67.9726 249.494 73.5 248" stroke="#3B3B3B" stroke-width="5" stroke-linecap="round"/>
<path d="M45.9179 197.813C44.8081 181.375 44.2653 144.91 44.2651 132.357C44.265 120.157 50.9243 66.9002 87.5489 38.2069C124.174 9.51366 137.492 1.44368 261.516 3.23701C385.54 5.03034 379.714 8.61729 428.824 48.0705C477.934 87.5238 461 196 453 219C445.63 240.187 424.662 266.517 420.5 271C416.338 275.483 382.5 302.5 347.5 305C290.36 309.081 164.5 313 138.5 302C123.5 295.654 110.5 292 86.4998 269C70.9626 254.11 75.5 258.5 69 251" stroke="#3B3B3B" stroke-width="5" stroke-linecap="round"/>
</svg>
