<svg width="1600" height="1288" viewBox="0 0 1600 1288" fill="none" xmlns="http://www.w3.org/2000/svg">
<path d="M0 0.262207H1600V1287.74H0V0.262207Z" fill="#2A3E78"/>
<path d="M1230.81 1101.26C1233.23 1105.22 1239.27 1104.05 1240.02 1099.47L1247.47 1053.78C1247.7 1052.34 1248.55 1051.07 1249.8 1050.31L1289.38 1026.23C1293.35 1023.82 1292.16 1017.77 1287.58 1017.03L1241.82 1009.59C1240.38 1009.36 1239.12 1008.51 1238.36 1007.26L1214.21 967.738C1211.79 963.779 1205.75 964.957 1205.01 969.534L1197.56 1015.22C1197.32 1016.66 1196.47 1017.93 1195.22 1018.69L1155.65 1042.77C1151.68 1045.18 1152.86 1051.23 1157.45 1051.98L1203.2 1059.41C1204.64 1059.64 1205.91 1060.49 1206.67 1061.74L1230.81 1101.26Z" fill="#1E326D"/>
<path d="M1391.39 972.124C1391.42 974.906 1394.9 976.147 1396.69 974.015L1412.7 954.964C1413.26 954.293 1414.09 953.902 1414.96 953.892L1439.86 953.618C1442.65 953.587 1443.89 950.107 1441.76 948.319L1422.68 932.354C1422.01 931.792 1421.62 930.965 1421.61 930.09L1421.33 905.23C1421.3 902.447 1417.82 901.207 1416.03 903.339L1400.03 922.39C1399.46 923.06 1398.64 923.452 1397.76 923.461L1372.86 923.736C1370.08 923.766 1368.83 927.247 1370.97 929.034L1390.04 945C1390.72 945.561 1391.11 946.388 1391.12 947.263L1391.39 972.124Z" fill="#1E326D"/>
<path d="M1066.07 370.125C1067.05 371.704 1069.46 371.22 1069.75 369.387L1072.63 351.11C1072.72 350.534 1073.06 350.026 1073.56 349.72L1089.33 340.011C1090.91 339.037 1090.42 336.621 1088.58 336.333L1070.28 333.459C1069.71 333.368 1069.2 333.03 1068.89 332.534L1059.16 316.787C1058.18 315.209 1055.77 315.693 1055.48 317.525L1052.6 335.802C1052.51 336.379 1052.17 336.887 1051.67 337.193L1035.9 346.901C1034.32 347.875 1034.81 350.291 1036.65 350.58L1054.95 353.453C1055.52 353.544 1056.03 353.882 1056.34 354.378L1066.07 370.125Z" fill="#1E326D"/>
<path d="M984.104 460.657C984.047 462.511 986.329 463.434 987.581 462.064L1009.6 437.973C1009.99 437.542 1010.56 437.304 1011.14 437.322L1043.79 438.322C1045.64 438.379 1046.57 436.096 1045.2 434.846L1021.07 412.876C1020.64 412.484 1020.4 411.922 1020.42 411.339L1021.42 378.746C1021.47 376.892 1019.19 375.969 1017.94 377.34L995.923 401.431C995.529 401.862 994.966 402.1 994.383 402.082L961.735 401.082C959.877 401.025 958.95 403.308 960.323 404.558L984.455 426.527C984.886 426.92 985.124 427.482 985.106 428.065L984.104 460.657Z" fill="#1E326D"/>
<path d="M586.474 836.882C587.309 838.539 589.755 838.265 590.201 836.465L596.726 810.184C596.866 809.618 597.247 809.141 597.769 808.88L621.995 796.721C623.655 795.887 623.38 793.438 621.576 792.992L595.256 786.483C594.689 786.343 594.211 785.962 593.949 785.441L581.761 761.252C580.926 759.595 578.481 759.869 578.034 761.669L571.51 787.949C571.369 788.516 570.988 788.993 570.466 789.254L546.24 801.413C544.58 802.246 544.855 804.696 546.659 805.142L572.98 811.651C573.546 811.791 574.024 812.171 574.286 812.693L586.474 836.882Z" fill="#1E326D"/>
<path d="M66.4622 229.277C67.0894 231.023 69.5498 231.048 70.2125 229.315L81.0103 201.077C81.2188 200.532 81.655 200.105 82.2046 199.908L110.701 189.711C112.45 189.086 112.475 186.621 110.739 185.959L82.4564 175.187C81.9109 174.979 81.4834 174.543 81.2861 173.994L71.0657 145.542C70.4385 143.796 67.978 143.771 67.3154 145.504L56.5176 173.743C56.3091 174.288 55.8728 174.715 55.3232 174.912L26.8271 185.108C25.0778 185.734 25.0527 188.199 26.7889 188.86L55.0715 199.633C55.6169 199.84 56.0444 200.276 56.2418 200.825L66.4622 229.277Z" fill="#1E326D"/>
<path d="M293.832 644.729C296.231 647.563 300.861 645.891 300.888 642.182L301.352 579.532C301.361 578.365 301.88 577.26 302.772 576.508L350.713 536.09C353.552 533.696 351.873 529.062 348.156 529.035L285.402 528.572C284.234 528.563 283.128 528.045 282.373 527.154L241.864 479.292C239.466 476.458 234.836 478.129 234.808 481.839L234.344 544.489C234.335 545.656 233.817 546.761 232.925 547.513L184.984 587.931C182.144 590.324 183.824 594.958 187.54 594.986L250.295 595.449C251.463 595.458 252.569 595.976 253.324 596.867L293.832 644.729Z" fill="#1E326D"/>
<path d="M919.507 1218.6C921.12 1222.95 927.271 1222.95 928.884 1218.6L939.385 1190.28C939.892 1188.91 940.972 1187.83 942.34 1187.32L970.691 1176.85C975.048 1175.24 975.048 1169.08 970.691 1167.47L942.34 1157C940.972 1156.5 939.892 1155.42 939.385 1154.05L928.884 1125.73C927.271 1121.38 921.12 1121.38 919.507 1125.73L909.007 1154.05C908.499 1155.42 907.42 1156.5 906.051 1157L877.7 1167.47C873.343 1169.08 873.343 1175.24 877.7 1176.85L906.051 1187.32C907.42 1187.83 908.499 1188.91 909.007 1190.28L919.507 1218.6Z" fill="#1E326D"/>
<path fill-rule="evenodd" clip-rule="evenodd" d="M9.2038 1287.74L11.45 1280.96C11.7252 1280.13 12.3498 1279.46 13.1599 1279.12L51.28 1263.5C53.8585 1262.44 53.7278 1258.75 51.0811 1257.87L11.9519 1244.97C11.1203 1244.7 10.45 1244.07 10.1168 1243.26L0.00195312 1218.68V1287.74H9.2038Z" fill="#1E326D"/>
<path fill-rule="evenodd" clip-rule="evenodd" d="M91.0987 1287.74H114.076L162.232 1233.56C163.201 1232.47 164.6 1231.86 166.059 1231.88L260.369 1233.47C265.014 1233.55 267.253 1227.81 263.778 1224.73L193.218 1162.26C192.126 1161.29 191.512 1159.89 191.536 1158.44L193.125 1064.29C193.203 1059.65 187.468 1057.42 184.384 1060.89L121.775 1131.33C120.805 1132.42 119.407 1133.04 117.947 1133.01L23.6372 1131.43C18.992 1131.35 16.7531 1137.09 20.2285 1140.17L90.7882 1202.64C91.8803 1203.61 92.4946 1205 92.47 1206.46L91.0987 1287.74Z" fill="#1E326D"/>
<path fill-rule="evenodd" clip-rule="evenodd" d="M1546.15 566.559C1544.13 570.732 1538 570.14 1536.82 565.656L1517.12 491.107C1516.75 489.696 1515.78 488.519 1514.46 487.884L1444.97 454.294C1440.78 452.273 1441.38 446.139 1445.87 444.957L1520.54 425.305C1521.95 424.934 1523.13 423.964 1523.77 422.651L1557.43 353.261C1559.46 349.088 1565.58 349.68 1566.77 354.164L1586.47 428.713C1586.84 430.124 1587.81 431.301 1589.12 431.936L1600 437.193V490.054L1583.05 494.515C1581.64 494.886 1580.46 495.856 1579.82 497.169L1546.15 566.559Z" fill="#1E326D"/>
</svg>
