<svg width="1600" height="1196" viewBox="0 0 1600 1196" fill="none" xmlns="http://www.w3.org/2000/svg">
<path fill-rule="evenodd" clip-rule="evenodd" d="M260.403 694.202C173.181 689.99 66.7883 684.851 0.00244141 694.867V1195.86H1599.98V668.914C1489.87 682.219 1229.89 707.821 1070.82 703.784C972.909 701.298 902.992 697.033 844.757 693.48C784.734 689.818 737.121 686.914 684.056 687.496C640.632 687.972 592.34 690.229 543.223 692.525C474.084 695.757 403.312 699.065 342.187 697.59C318.922 697.028 290.829 695.671 260.404 694.202H260.403Z" fill="#AFE0F9"/>
<path fill-rule="evenodd" clip-rule="evenodd" d="M1600 894.604C1599.59 894.436 1599.17 894.269 1598.75 894.104V0.000976562H0.00262581V889.438L0.00195312 889.438V1178.37C20.1492 1186.35 42.3101 1190.77 65.5756 1190.77C140.297 1190.77 203.625 1145.21 225.446 1082.23C232.402 1083.05 239.49 1083.47 246.683 1083.47C296.544 1083.47 341.331 1063.19 372.098 1030.98C402.776 1061.83 446.594 1081.14 495.24 1081.14C538.771 1081.14 578.434 1065.68 608.277 1040.32C638.12 1065.68 677.784 1081.14 721.314 1081.14C765.588 1081.14 805.862 1065.15 835.871 1039.01C852.611 1109.17 919.669 1161.61 999.845 1161.61C1065.25 1161.61 1121.92 1126.71 1149.67 1075.77C1180.43 1107.71 1225.02 1127.79 1274.63 1127.79C1312.99 1127.79 1348.35 1115.78 1376.62 1095.58C1401.05 1154.03 1461.94 1195.43 1533.18 1195.43C1556.92 1195.43 1579.52 1190.83 1600 1182.53V894.604Z" fill="white"/>
<path fill-rule="evenodd" clip-rule="evenodd" d="M1364.9 160.731C1345.86 160.731 1329.79 147.945 1324.73 130.448C1317.48 136.521 1308.15 140.174 1297.97 140.174C1281.38 140.174 1267.04 130.456 1260.28 116.372C1256.88 117.268 1253.31 117.746 1249.63 117.746C1226.53 117.746 1207.81 98.9186 1207.81 75.6942C1207.81 52.4698 1226.53 33.6427 1249.63 33.6427C1254.25 33.6427 1258.69 34.3938 1262.84 35.781C1269.01 20.2888 1284.08 9.3454 1301.69 9.3454C1317.07 9.3454 1330.52 17.6966 1337.78 30.136C1342.89 12.7158 1358.92 0.00189444 1377.91 0.00189444C1398.95 0.00189444 1416.36 15.6191 1419.3 35.9519C1439.52 38.9072 1455.06 56.4118 1455.06 77.564C1455.06 100.788 1436.33 119.615 1413.23 119.615C1411.02 119.615 1408.84 119.443 1406.72 119.109C1406.49 142.136 1387.85 160.731 1364.9 160.731Z" fill="#8ACDEE"/>
<path fill-rule="evenodd" clip-rule="evenodd" d="M750.89 969.405C742.234 969.405 734.928 975.301 732.627 983.367C729.33 980.567 725.089 978.882 720.461 978.882C712.916 978.882 706.397 983.361 703.324 989.852C701.78 989.44 700.16 989.22 698.489 989.22C687.986 989.22 679.472 997.898 679.472 1008.6C679.472 1019.31 687.986 1027.99 698.489 1027.99C700.586 1027.99 702.605 1027.64 704.492 1027C707.296 1034.14 714.147 1039.18 722.154 1039.18C729.149 1039.18 735.262 1035.34 738.565 1029.6C740.888 1037.63 748.177 1043.49 756.808 1043.49C766.374 1043.49 774.29 1036.29 775.626 1026.92C784.82 1025.56 791.882 1017.49 791.882 1007.74C791.882 997.036 783.368 988.358 772.865 988.358C771.858 988.358 770.87 988.438 769.906 988.591C769.802 977.977 761.328 969.405 750.89 969.405Z" fill="#8ACDEE"/>
<path fill-rule="evenodd" clip-rule="evenodd" d="M990.155 5.02344C1001.69 5.02344 1011.43 9.21938 1014.5 14.9609C1018.89 12.968 1024.54 11.7692 1030.71 11.7692C1040.76 11.7692 1049.45 14.9575 1053.55 19.5785C1055.61 19.2845 1057.77 19.128 1060 19.128C1074 19.128 1085.34 25.3056 1085.34 32.9261C1085.34 40.5466 1074 46.7243 1060 46.7243C1057.2 46.7243 1054.51 46.4779 1052 46.0228C1048.26 51.1059 1039.13 54.6965 1028.46 54.6965C1019.13 54.6965 1010.99 51.9561 1006.58 47.8743C1003.49 53.5907 993.773 57.7629 982.269 57.7629C969.52 57.7629 958.969 52.6387 957.188 45.9672C944.932 44.9976 935.518 39.2538 935.518 32.3131C935.518 24.6926 946.866 18.515 960.864 18.515C962.206 18.515 963.524 18.5717 964.81 18.6811C964.948 11.1253 976.242 5.02344 990.155 5.02344Z" fill="#8ACDEE"/>
<path fill-rule="evenodd" clip-rule="evenodd" d="M878.878 895.318C897.248 895.318 912.751 904.11 917.635 916.14C924.632 911.965 933.632 909.453 943.45 909.453C959.463 909.453 973.297 916.133 979.819 925.815C983.098 925.199 986.539 924.871 990.087 924.871C1012.38 924.871 1030.45 937.815 1030.45 953.782C1030.45 969.748 1012.38 982.692 990.087 982.692C985.635 982.692 981.352 982.176 977.347 981.222C971.396 991.872 956.856 999.395 939.863 999.395C925.019 999.395 912.046 993.654 905.037 985.103C900.105 997.079 884.638 1005.82 866.322 1005.82C846.022 1005.82 829.223 995.084 826.385 981.105C806.871 979.074 791.882 967.039 791.882 952.497C791.882 936.53 809.951 923.587 832.24 923.587C834.377 923.587 836.475 923.706 838.522 923.935C838.742 908.103 856.726 895.318 878.878 895.318Z" fill="#8ACDEE"/>
<path fill-rule="evenodd" clip-rule="evenodd" d="M0.00146484 531.183C7.3304 528.371 13.1007 521.016 15.2695 511.703C19.2335 520.254 26.5681 525.993 34.961 525.993C44.5696 525.993 52.7912 518.47 56.1559 507.82C58.4207 508.774 60.8431 509.29 63.3608 509.29C75.9642 509.29 86.1813 496.347 86.1813 480.38C86.1813 464.413 75.9642 451.469 63.3608 451.469C61.3552 451.469 59.41 451.797 57.5567 452.413C53.8689 442.731 46.0463 436.051 36.9922 436.051C31.4401 436.051 26.351 438.563 22.3945 442.738C19.6327 430.708 10.8664 421.917 0.479233 421.917C0.319589 421.917 0.160327 421.919 0.00146484 421.923V531.183Z" fill="#8ACDEE"/>
<path fill-rule="evenodd" clip-rule="evenodd" d="M46.428 0C44.807 4.53746 43.9103 9.3405 43.8516 14.3131C40.7769 13.9071 37.6256 13.6964 34.416 13.6964C21.6351 13.6964 9.7776 17.0378 0 22.7434V107.15C7.49093 111.521 16.2027 114.505 25.6152 115.661C29.877 140.442 55.1208 159.476 85.6249 159.476C113.149 159.476 136.39 143.98 143.799 122.748C154.332 137.908 173.825 148.086 196.131 148.086C221.666 148.086 243.514 134.749 252.455 115.868C258.473 117.559 264.909 118.474 271.598 118.474C305.091 118.474 332.242 95.5288 332.242 67.224C332.242 38.9193 305.091 15.9737 271.598 15.9737C266.267 15.9737 261.097 16.5551 256.171 17.647C252.245 10.7708 246.555 4.74871 239.598 0H163.445C163.205 0.163814 162.967 0.329143 162.73 0.49597C162.673 0.330299 162.615 0.164974 162.556 0H46.428Z" fill="#8ACDEE"/>
<path fill-rule="evenodd" clip-rule="evenodd" d="M79.4467 968.298C84.5089 950.8 100.577 938.012 119.615 938.012C142.574 938.012 161.212 956.607 161.441 979.634C163.562 979.301 165.736 979.128 167.951 979.128C191.051 979.128 209.778 997.955 209.778 1021.18C209.778 1042.33 194.244 1059.84 174.02 1062.79C171.081 1083.12 153.669 1098.74 132.629 1098.74C113.645 1098.74 97.6143 1086.03 92.5042 1068.61C85.2394 1081.05 71.7938 1089.4 56.4079 1089.4C38.7965 1089.4 23.7272 1078.45 17.5599 1062.96C13.4095 1064.35 8.97029 1065.1 4.3566 1065.1C2.88542 1065.1 1.43199 1065.02 0 1064.88V981.223C1.43199 981.074 2.88542 980.998 4.3566 980.998C8.03326 980.998 11.5991 981.475 14.9964 982.37C21.7555 968.287 36.094 958.57 52.6899 958.57C62.8668 958.57 72.1947 962.224 79.4467 968.298Z" fill="#8ACDEE"/>
<path fill-rule="evenodd" clip-rule="evenodd" d="M1600 978.815C1594.61 977.597 1588.86 976.939 1582.9 976.939C1557.49 976.939 1536.03 988.885 1529.19 1005.25C1519.46 993.565 1501.46 985.718 1480.86 985.718C1457.29 985.718 1437.11 996 1428.86 1010.56C1423.3 1009.25 1417.36 1008.55 1411.18 1008.55C1380.26 1008.55 1355.19 1026.24 1355.19 1048.06C1355.19 1069.88 1380.26 1087.57 1411.18 1087.57C1416.11 1087.57 1420.88 1087.12 1425.43 1086.28C1434.48 1099.52 1453.67 1108.65 1475.89 1108.65C1489.51 1108.65 1502 1105.21 1511.71 1099.51C1518.48 1115.95 1539.99 1127.96 1565.48 1127.96C1578.5 1127.96 1590.49 1124.82 1600 1119.56V978.815Z" fill="#8ACDEE"/>
<path fill-rule="evenodd" clip-rule="evenodd" d="M1598.75 326.808C1590.1 326.987 1582.65 333.616 1579.12 343.165C1577.32 342.55 1575.43 342.223 1573.48 342.223C1561.22 342.223 1551.29 355.167 1551.29 371.133C1551.29 387.1 1561.22 400.044 1573.48 400.044C1575.92 400.044 1578.28 399.528 1580.48 398.574C1583.47 408.325 1590.43 415.455 1598.75 416.589V326.808Z" fill="#8ACDEE"/>
<path d="M609.584 66.654C531.56 63.6692 92.7094 59.1313 63.3344 79.8182C33.9594 100.505 30.8343 150.655 30.8343 215.223V445.286C30.8343 487.913 23.3343 682.244 30.8343 808.872C38.3343 935.501 81.4593 927.352 120.834 936.755C160.209 946.158 333.334 936.755 422.084 936.755H735.834C795.209 936.755 937.709 943.023 992.084 943.023H1460.21C1541.46 943.023 1560.21 894.127 1560.21 877.202V601.377V340.598C1560.21 304.866 1585.86 143.921 1560.21 100.505C1540.21 66.654 1381.46 77.3109 1348.33 77.3109C1315.21 77.3109 1080.83 53.4897 1023.33 66.654C965.834 79.8182 682.699 69.4509 609.584 66.654Z" fill="#E2F0F7" stroke="#3B3B3B" stroke-width="10"/>
</svg>
