<svg width="348" height="230" viewBox="0 0 348 230" fill="none" xmlns="http://www.w3.org/2000/svg">
<path fill-rule="evenodd" clip-rule="evenodd" d="M342 150C342 152.93 340.74 155.566 338.731 157.395C335.486 195.823 303.267 226 264 226H116C75.7614 226 42.9239 194.311 41.0816 154.528C40.39 153.168 40.0001 151.629 40.0001 150V84.6775L1.97704 49.1084C-0.126447 47.1406 1.41206 43.653 4.25866 43.9362L40.0001 47.4919V12.9995C40.0001 7.47667 44.4773 2.99951 50.0001 2.99951H332C337.523 2.99951 342 7.47665 342 12.9995V150Z" fill="#FFFDF5"/>
<path d="M46.1138 87.9487L8.65182 54.6227C3.4152 50.702 -2.58677 43.2527 15.2983 44.8209C33.1834 46.3892 45.7109 48.9595 49.739 50.0486" stroke="#3B3B3B" stroke-width="6" stroke-linecap="round"/>
<path d="M38.9525 84.0284C38.1437 96.0084 37.7481 122.582 37.748 131.731C37.748 140.622 38.8095 183.59 65.5 204.5C92.1905 225.41 105.688 227.134 196.071 225.828C286.455 224.521 284.21 229.095 320 200.343C355.79 171.591 342.262 88.1493 342.262 70.5C342.262 54.1525 345.295 15.416 342.262 12.1487C339.229 8.88147 344.082 2.34697 291.914 3.65387C250.18 4.69939 116.809 4.0895 55.3396 3.65387C49.4758 2.56478 37.748 6.39836 37.748 30.4454C37.748 46.1282 37.748 49.3955 37.748 46.1282" stroke="#3B3B3B" stroke-width="6" stroke-linecap="round"/>
</svg>
