<svg width="1600" height="202" viewBox="0 0 1600 202" fill="none" xmlns="http://www.w3.org/2000/svg">
<path d="M1209.82 163.389L1209.83 163.39L1209.83 163.39C1221.34 164.275 1232.46 165.128 1243.25 165.955C1380.08 176.443 1463.45 182.834 1598.5 200.277V47.0514C1473.42 18.4869 1408.02 12.0519 1254.69 5.31816C1100.88 -1.43654 953.824 -0.346909 809.639 17.7496C625.06 46.0303 520.386 39.2256 372.714 23.9596C225.761 8.76776 106.762 7.32561 1.5 23.7507V195.839C54.2419 195.759 101.43 191.453 148.794 187.131C163.691 185.772 178.605 184.411 193.714 183.179C257.299 177.997 324.222 175.121 407.539 184.372C544.76 199.609 630.027 200.447 801.235 184.373C942.211 165.02 1039.51 151.975 1209.82 163.389Z" fill="#3D9E31" stroke="black" stroke-width="3"/>
<path d="M0 178.539C63.4806 185.392 281.72 151.049 404.203 168.179C537.318 186.796 621.334 180.533 788.355 168.179C925.787 153.316 1017.8 138.773 1183.71 147.531C1337.78 156.872 1441.66 162.669 1600 184.31L1599.29 63.8167C1480.97 37.2511 1371.69 21.4044 1216.78 21.4044C1061.87 21.4044 929.043 23.3394 788.355 37.2511C619.578 64.7993 462.031 57.6469 361.595 37.2511C261.159 16.8552 38.954 23.0838 0 42.5609C1.97786e-05 53.3814 0 178.539 0 178.539Z" fill="white"/>
</svg>
