<svg width="1600" height="1337" viewBox="0 0 1600 1337" fill="none" xmlns="http://www.w3.org/2000/svg">
<rect y="1174.49" width="1600" height="162.064" fill="#FFFED7"/>
<path fill-rule="evenodd" clip-rule="evenodd" d="M0.00195312 0.42749V1205.58C62.5133 1183.95 140.601 1163.47 223.74 1207.08C254.319 1223.12 279.258 1237.32 301.34 1249.89C385.691 1297.92 428.356 1322.21 584.441 1334.72C733.251 1346.64 904.621 1297.88 1073.49 1246.36C1202.19 1207.08 1324.74 1182.13 1432.28 1182.13C1498.38 1182.13 1555.1 1199.16 1600 1213.08L1600 0.42749H0.00195312Z" fill="#C5F4A8"/>
<path d="M1490.69 92.3206C1498.98 89.768 1515.2 82.2144 1518.91 71.2384C1519.22 70.3199 1520.67 70.0519 1521.2 70.8628C1526.74 79.3178 1538.71 92.3206 1553.01 92.3206" stroke="#9AD675" stroke-width="7" stroke-linecap="round"/>
<path d="M1456.86 146.055C1465.16 143.502 1481.37 135.949 1485.08 124.973C1485.39 124.054 1486.84 123.786 1487.37 124.597C1492.91 133.052 1504.88 146.055 1519.18 146.055" stroke="#9AD675" stroke-width="7" stroke-linecap="round"/>
<path d="M1408.09 116.408C1416.38 113.856 1432.6 106.302 1436.31 95.3261C1436.62 94.4075 1438.06 94.1396 1438.6 94.9504C1444.14 103.405 1456.1 116.408 1470.41 116.408" stroke="#9AD675" stroke-width="7" stroke-linecap="round"/>
<path d="M1366.54 170.143C1374.83 167.591 1391.05 160.037 1394.76 149.061C1395.07 148.142 1396.52 147.874 1397.05 148.685C1402.59 157.14 1414.56 170.143 1428.86 170.143" stroke="#9AD675" stroke-width="7" stroke-linecap="round"/>
<path d="M1229.25 68.2325C1237.54 65.6799 1253.76 58.1262 1257.47 47.1503C1257.78 46.2318 1259.23 45.9638 1259.76 46.7747C1265.3 55.2296 1277.27 68.2325 1291.57 68.2325" stroke="#9AD675" stroke-width="7" stroke-linecap="round"/>
<path d="M1268.99 105.291C1277.29 102.738 1293.5 95.1843 1297.21 84.2084C1297.53 83.2899 1298.97 83.0219 1299.5 83.8328C1305.04 92.2878 1317.01 105.291 1331.31 105.291" stroke="#9AD675" stroke-width="7" stroke-linecap="round"/>
<path d="M1290.67 146.055C1298.96 143.502 1315.18 135.949 1318.89 124.973C1319.2 124.054 1320.65 123.786 1321.18 124.597C1326.72 133.052 1338.69 146.055 1352.99 146.055" stroke="#9AD675" stroke-width="7" stroke-linecap="round"/>
<path d="M814.995 276.489C822.863 274.068 838.213 266.924 841.837 256.542C842.157 255.626 843.608 255.357 844.142 256.166C849.458 264.224 860.81 276.489 874.37 276.489" stroke="#9AD675" stroke-width="8" stroke-linecap="round"/>
<path d="M837.369 239.418C845.237 236.997 860.587 229.853 864.211 219.471C864.531 218.555 865.981 218.286 866.515 219.095C871.831 227.153 883.184 239.418 896.744 239.418" stroke="#9AD675" stroke-width="8" stroke-linecap="round"/>
<path d="M896.696 44.6677C904.564 42.2465 919.914 35.1027 923.538 24.7205C923.858 23.8051 925.309 23.5358 925.842 24.3452C931.158 32.4028 942.511 44.6677 956.071 44.6677" stroke="#9AD675" stroke-width="8" stroke-linecap="round"/>
<path d="M606.441 1241.21C600.787 1239.47 589.93 1234.45 586.795 1227.14C586.413 1226.25 584.902 1225.98 584.352 1226.78C580.238 1232.75 572.054 1241.21 562.347 1241.21" stroke="#9AD675" stroke-width="7" stroke-linecap="round"/>
<path d="M589.825 1213.68C584.171 1211.94 573.314 1206.92 570.179 1199.61C569.797 1198.72 568.286 1198.45 567.736 1199.25C563.622 1205.22 555.439 1213.68 545.732 1213.68" stroke="#9AD675" stroke-width="7" stroke-linecap="round"/>
<path d="M633.28 1196.64C627.626 1194.9 616.769 1189.88 613.634 1182.57C613.252 1181.68 611.741 1181.41 611.191 1182.21C607.078 1188.18 598.894 1196.64 589.187 1196.64" stroke="#9AD675" stroke-width="7" stroke-linecap="round"/>
<path d="M325.518 514.987C332.268 512.91 345.346 506.838 348.732 498.01C349.08 497.105 350.558 496.837 351.099 497.642C355.813 504.651 365.563 514.987 377.174 514.987" stroke="#9AD675" stroke-width="8" stroke-linecap="round"/>
<path d="M292.578 559.525C299.327 557.448 312.405 551.376 315.792 542.548C316.139 541.642 317.617 541.375 318.158 542.18C322.872 549.189 332.623 559.525 344.233 559.525" stroke="#9AD675" stroke-width="8" stroke-linecap="round"/>
<path d="M610.312 587.499C606.023 586.179 597.925 582.455 595.149 577.033C594.707 576.17 593.133 575.906 592.567 576.693C589.226 581.339 582.992 587.499 575.649 587.499" stroke="#9AD675" stroke-width="7" stroke-linecap="round"/>
<path d="M633.42 617.385C629.131 616.065 621.034 612.342 618.257 606.92C617.815 606.057 616.241 605.792 615.675 606.579C612.334 611.225 606.1 617.385 598.758 617.385" stroke="#9AD675" stroke-width="7" stroke-linecap="round"/>
<path d="M805.791 849.527C810.08 848.207 818.177 844.483 820.954 839.061C821.396 838.198 822.97 837.934 823.536 838.721C826.877 843.367 833.111 849.527 840.453 849.527" stroke="#9AD675" stroke-width="6" stroke-linecap="round"/>
<path d="M827.895 870.138C832.184 868.818 840.281 865.094 843.058 859.672C843.5 858.809 845.074 858.545 845.64 859.332C848.981 863.978 855.215 870.138 862.557 870.138" stroke="#9AD675" stroke-width="6" stroke-linecap="round"/>
<path d="M839.951 892.81C844.24 891.49 852.337 887.766 855.113 882.344C855.555 881.481 857.129 881.217 857.695 882.004C861.037 886.65 867.27 892.81 874.613 892.81" stroke="#9AD675" stroke-width="6" stroke-linecap="round"/>
<path d="M428.36 944.347C432.649 943.027 440.746 939.304 443.523 933.881C443.965 933.018 445.538 932.754 446.105 933.541C449.446 938.187 455.68 944.347 463.022 944.347" stroke="#9AD675" stroke-width="6" stroke-linecap="round"/>
<path d="M441.421 922.705C445.71 921.386 453.807 917.662 456.584 912.24C457.026 911.377 458.6 911.112 459.166 911.9C462.507 916.546 468.741 922.705 476.083 922.705" stroke="#9AD675" stroke-width="6" stroke-linecap="round"/>
<path d="M867.201 1122.79C863.537 1121.66 856.696 1118.53 854.111 1113.97C853.633 1113.13 852.017 1112.87 851.44 1113.65C848.465 1117.67 843.123 1122.79 836.859 1122.79" stroke="#9AD675" stroke-width="6" stroke-linecap="round"/>
<path d="M930.524 1160.68C926.859 1159.55 920.019 1156.42 917.434 1151.86C916.956 1151.01 915.339 1150.75 914.763 1151.53C911.788 1155.56 906.446 1160.68 900.182 1160.68" stroke="#9AD675" stroke-width="6" stroke-linecap="round"/>
<path d="M997.363 1111.06C993.699 1109.94 986.858 1106.8 984.273 1102.24C983.795 1101.4 982.179 1101.14 981.602 1101.92C978.628 1105.94 973.285 1111.06 967.021 1111.06" stroke="#9AD675" stroke-width="6" stroke-linecap="round"/>
<path d="M967.463 1148.95C963.798 1147.83 956.958 1144.69 954.373 1140.13C953.894 1139.29 952.278 1139.03 951.702 1139.81C948.727 1143.83 943.385 1148.95 937.121 1148.95" stroke="#9AD675" stroke-width="6" stroke-linecap="round"/>
<path d="M1052.77 1179.62C1049.11 1178.5 1042.27 1175.36 1039.68 1170.8C1039.2 1169.96 1037.59 1169.7 1037.01 1170.48C1034.04 1174.5 1028.69 1179.62 1022.43 1179.62" stroke="#9AD675" stroke-width="6" stroke-linecap="round"/>
<path d="M1071.24 1148.95C1067.58 1147.83 1060.74 1144.69 1058.15 1140.13C1057.67 1139.29 1056.06 1139.03 1055.48 1139.81C1052.5 1143.83 1047.16 1148.95 1040.9 1148.95" stroke="#9AD675" stroke-width="6" stroke-linecap="round"/>
<path d="M541.694 85.3969C538.674 84.4674 533.123 81.941 530.763 78.2598C530.24 77.4436 528.567 77.1883 527.977 77.9579C525.394 81.3282 520.969 85.3969 515.813 85.3969" stroke="#9AD675" stroke-width="6" stroke-linecap="round"/>
<path d="M595.708 117.715C592.687 116.786 587.137 114.259 584.777 110.578C584.253 109.762 582.581 109.507 581.991 110.276C579.407 113.647 574.983 117.715 569.827 117.715" stroke="#9AD675" stroke-width="6" stroke-linecap="round"/>
<path d="M652.723 75.3935C649.702 74.464 644.152 71.9376 641.791 68.2564C641.268 67.4401 639.595 67.1849 639.005 67.9544C636.422 71.3248 631.998 75.3935 626.841 75.3935" stroke="#9AD675" stroke-width="6" stroke-linecap="round"/>
<path d="M627.216 107.712C624.195 106.783 618.645 104.256 616.284 100.575C615.761 99.759 614.089 99.5038 613.499 100.273C610.915 103.644 606.491 107.712 601.334 107.712" stroke="#9AD675" stroke-width="6" stroke-linecap="round"/>
<path d="M699.984 133.875C696.963 132.945 691.413 130.419 689.053 126.738C688.529 125.921 686.857 125.666 686.267 126.436C683.683 129.806 679.259 133.875 674.102 133.875" stroke="#9AD675" stroke-width="6" stroke-linecap="round"/>
<path d="M715.737 107.712C712.717 106.783 707.166 104.256 704.806 100.575C704.283 99.759 702.61 99.5038 702.02 100.273C699.436 103.644 695.012 107.712 689.856 107.712" stroke="#9AD675" stroke-width="6" stroke-linecap="round"/>
<path d="M1486.28 929.748C1492.77 927.752 1505.31 921.934 1508.63 913.473C1508.99 912.571 1510.47 912.305 1511.02 913.109C1515.59 919.868 1524.96 929.748 1536.11 929.748" stroke="#9AD675" stroke-width="7" stroke-linecap="round"/>
<path d="M1454.51 972.71C1460.99 970.714 1473.53 964.896 1476.86 956.435C1477.21 955.533 1478.7 955.267 1479.24 956.07C1483.81 962.83 1493.19 972.71 1504.33 972.71" stroke="#9AD675" stroke-width="7" stroke-linecap="round"/>
<path d="M1415.51 949.006C1422 947.011 1434.54 941.193 1437.86 932.732C1438.22 931.829 1439.71 931.564 1440.25 932.367C1444.82 939.127 1454.19 949.006 1465.34 949.006" stroke="#9AD675" stroke-width="7" stroke-linecap="round"/>
<path d="M1382.29 991.968C1388.78 989.973 1401.32 984.155 1404.65 975.694C1405 974.792 1406.49 974.526 1407.03 975.329C1411.6 982.089 1420.97 991.968 1432.12 991.968" stroke="#9AD675" stroke-width="7" stroke-linecap="round"/>
<path d="M74.8203 644.574C71.2566 643.478 64.6187 640.441 62.0663 636.016C61.5817 635.176 59.9584 634.916 59.3803 635.694C56.4657 639.618 51.267 644.574 45.1763 644.574" stroke="#9AD675" stroke-width="6" stroke-linecap="round"/>
<path d="M93.7246 670.134C90.1609 669.037 83.523 666 80.9706 661.575C80.486 660.736 78.8627 660.475 78.2846 661.254C75.37 665.178 70.1713 670.134 64.0806 670.134" stroke="#9AD675" stroke-width="6" stroke-linecap="round"/>
<path d="M111.645 654.017C108.081 652.92 101.443 649.883 98.8905 645.459C98.406 644.619 96.7826 644.358 96.2045 645.137C93.2899 649.061 88.0912 654.017 82.0005 654.017" stroke="#9AD675" stroke-width="6" stroke-linecap="round"/>
<path d="M105.943 1136.03C100.101 1134.23 88.8622 1129.03 85.6824 1121.46C85.3068 1120.56 83.802 1120.3 83.2536 1121.09C79.036 1127.24 70.5833 1136.03 60.5497 1136.03" stroke="#9AD675" stroke-width="7" stroke-linecap="round"/>
<path d="M164.576 978.786C158.733 976.989 147.495 971.785 144.315 964.215C143.94 963.321 142.435 963.054 141.886 963.853C137.669 970.003 129.216 978.786 119.183 978.786" stroke="#9AD675" stroke-width="7" stroke-linecap="round"/>
<path d="M135.629 1005.78C129.787 1003.98 118.548 998.777 115.368 991.207C114.993 990.313 113.488 990.046 112.94 990.845C108.722 996.995 100.269 1005.78 90.2358 1005.78" stroke="#9AD675" stroke-width="7" stroke-linecap="round"/>
<path d="M119.839 1035.47C113.997 1033.67 102.758 1028.47 99.5784 1020.9C99.2028 1020 97.698 1019.74 97.1496 1020.54C92.932 1026.69 84.4793 1035.47 74.4457 1035.47" stroke="#9AD675" stroke-width="7" stroke-linecap="round"/>
<path d="M123.963 165.829C120.4 164.732 113.762 161.695 111.209 157.271C110.725 156.431 109.101 156.171 108.523 156.949C105.609 160.873 100.41 165.829 94.3193 165.829" stroke="#9AD675" stroke-width="6" stroke-linecap="round"/>
<path d="M112.793 147.321C109.229 146.224 102.591 143.187 100.039 138.763C99.5544 137.923 97.9311 137.662 97.3529 138.441C94.4384 142.365 89.2397 147.321 83.1489 147.321" stroke="#9AD675" stroke-width="6" stroke-linecap="round"/>
<path d="M142.007 135.863C138.444 134.766 131.806 131.729 129.253 127.305C128.769 126.465 127.145 126.204 126.567 126.983C123.653 130.907 118.454 135.863 112.363 135.863" stroke="#9AD675" stroke-width="6" stroke-linecap="round"/>
</svg>
