<svg width="1600" height="1528" viewBox="0 0 1600 1528" fill="none" xmlns="http://www.w3.org/2000/svg">
<rect y="1261.96" width="1600" height="265.785" fill="#2A3E78"/>
<path fill-rule="evenodd" clip-rule="evenodd" d="M1600 0.0241699H0V1362.96C123.292 1444.85 360.609 1505.07 644.192 1521.47C694.982 1524.41 747.256 1525.94 800.625 1525.94L801.881 1525.94C1123.78 1525.8 1405.72 1469.89 1562.18 1386.18C1575.65 1379.72 1588.35 1372.93 1600 1365.79V0.0241699Z" fill="#FFFED7"/>
<ellipse cx="12.449" cy="11.5715" rx="12.449" ry="11.5715" transform="matrix(-0.738798 -0.673927 -0.677685 0.735352 192.829 205.833)" fill="#EAE9BD"/>
<ellipse cx="12.071" cy="11.5728" rx="12.071" ry="11.5728" transform="matrix(0.724236 -0.689552 -0.693246 -0.720701 52.2949 345.882)" fill="#EAE9BD"/>
<ellipse cx="9.45454" cy="8.13431" rx="9.45454" ry="8.13431" transform="matrix(0.911988 -0.410216 0.413717 0.910405 391.25 1190.46)" fill="#EAE9BD"/>
<ellipse cx="17.2452" cy="16.1911" rx="17.2452" ry="16.1911" transform="matrix(0.960006 0.279981 -0.282633 0.959228 445.402 1218.77)" fill="#EAE9BD"/>
<ellipse cx="15.7318" cy="15.0532" rx="15.7318" ry="15.0532" transform="matrix(0.79503 0.606571 -0.610493 0.792022 973.38 1378.55)" fill="#EAE9BD"/>
<ellipse cx="15.7318" cy="15.0532" rx="15.7318" ry="15.0532" transform="matrix(0.79503 0.606571 -0.610493 0.792022 1017.1 1330.7)" fill="#EAE9BD"/>
<ellipse cx="12.2458" cy="12.4127" rx="12.2458" ry="12.4127" transform="matrix(0.937423 -0.348194 0.351336 0.936249 909.032 401.575)" fill="#EAE9BD"/>
<ellipse cx="5.69911" cy="5.77675" rx="5.69911" ry="5.77675" transform="matrix(0.937423 -0.348194 0.351336 0.936249 881.25 379.565)" fill="#EAE9BD"/>
<ellipse cx="5.69911" cy="5.77675" rx="5.69911" ry="5.77675" transform="matrix(0.937423 -0.348194 0.351336 0.936249 1497.5 1085.94)" fill="#EAE9BD"/>
<ellipse cx="15.5749" cy="15.8137" rx="15.5749" ry="15.8137" transform="matrix(0.937423 -0.348194 0.351336 0.936249 1040.02 198.346)" fill="#EAE9BD"/>
<ellipse cx="16.0241" cy="15.6586" rx="16.0241" ry="15.6586" transform="matrix(0.984878 -0.173251 0.17498 0.984572 11.25 1310.13)" fill="#EAE9BD"/>
<ellipse cx="18.5946" cy="19.9815" rx="18.5946" ry="19.9815" transform="matrix(0.984878 -0.173251 0.17498 0.984572 1556.25 275.089)" fill="#EAE9BD"/>
<ellipse cx="10.9154" cy="10.9776" rx="10.9154" ry="10.9776" transform="matrix(0.904765 0.425911 -0.429488 0.903073 1521.82 677.596)" fill="#EAE9BD"/>
</svg>
