<svg width="1280" height="1032" viewBox="0 0 1280 1032" fill="none" xmlns="http://www.w3.org/2000/svg">
<path d="M0 0H1280V1032H0V0Z" fill="#2A3E78"/>
<path d="M983.245 880.217C985.662 884.18 991.704 882.999 992.45 878.417L997.902 844.913C998.136 843.473 998.988 842.207 1000.23 841.447L1029.22 823.777C1033.18 821.361 1032 815.318 1027.42 814.573L993.914 809.121C992.473 808.886 991.207 808.034 990.448 806.788L972.778 777.805C970.361 773.842 964.319 775.023 963.573 779.605L958.121 813.109C957.887 814.549 957.035 815.815 955.789 816.575L926.806 834.245C922.842 836.661 924.024 842.704 928.605 843.449L962.109 848.902C963.55 849.136 964.816 849.988 965.575 851.234L983.245 880.217Z" fill="#1E326D"/>
<path d="M1113.1 777.39C1113.13 780.175 1116.61 781.419 1118.4 779.285L1129.98 765.466C1130.54 764.796 1131.37 764.404 1132.25 764.394L1150.28 764.195C1153.06 764.164 1154.31 760.686 1152.17 758.897L1138.36 747.31C1137.69 746.747 1137.29 745.92 1137.28 745.044L1137.08 727.012C1137.05 724.227 1133.58 722.984 1131.79 725.118L1120.2 738.936C1119.64 739.607 1118.81 739.999 1117.93 740.008L1099.9 740.207C1097.12 740.238 1095.87 743.717 1098.01 745.506L1111.83 757.093C1112.5 757.655 1112.89 758.483 1112.9 759.358L1113.1 777.39Z" fill="#1E326D"/>
<path d="M852.292 295.549C853.267 297.129 855.681 296.644 855.97 294.81L858.078 281.408C858.169 280.832 858.507 280.324 859.004 280.017L870.549 272.894C872.13 271.919 871.644 269.505 869.81 269.216L856.409 267.108C855.832 267.017 855.324 266.679 855.017 266.182L847.895 254.637C846.92 253.056 844.505 253.542 844.217 255.376L842.108 268.777C842.018 269.354 841.68 269.862 841.183 270.169L829.637 277.291C828.057 278.266 828.542 280.681 830.376 280.969L843.778 283.078C844.354 283.168 844.862 283.506 845.169 284.003L852.292 295.549Z" fill="#1E326D"/>
<path d="M787.317 367.957C787.26 369.813 789.543 370.738 790.794 369.367L807.557 350.99C807.95 350.558 808.512 350.32 809.096 350.338L833.958 351.101C835.814 351.158 836.739 348.876 835.367 347.625L816.99 330.862C816.559 330.468 816.321 329.906 816.339 329.323L817.102 304.46C817.159 302.605 814.876 301.68 813.625 303.051L796.862 321.428C796.469 321.86 795.907 322.097 795.323 322.08L770.461 321.317C768.605 321.26 767.68 323.542 769.052 324.793L787.429 341.556C787.86 341.95 788.098 342.512 788.08 343.095L787.317 367.957Z" fill="#1E326D"/>
<path d="M468.695 669.639C469.529 671.298 471.976 671.024 472.423 669.222L477.338 649.384C477.478 648.817 477.859 648.34 478.381 648.078L496.64 638.896C498.299 638.062 498.025 635.614 496.222 635.168L476.384 630.253C475.818 630.112 475.341 629.731 475.079 629.21L465.896 610.951C465.062 609.292 462.615 609.566 462.168 611.368L457.253 631.206C457.113 631.773 456.732 632.25 456.21 632.512L437.951 641.694C436.293 642.528 436.567 644.976 438.369 645.422L458.207 650.338C458.773 650.478 459.25 650.859 459.513 651.38L468.695 669.639Z" fill="#1E326D"/>
<path d="M52.8051 182.552C53.4317 184.3 55.8943 184.325 56.5563 182.59L64.7436 161.137C64.9517 160.591 65.3877 160.164 65.9372 159.967L87.5525 152.218C89.3002 151.591 89.3253 149.129 87.5907 148.467L66.1373 140.279C65.592 140.071 65.1648 139.635 64.9678 139.086L57.2182 117.47C56.5916 115.723 54.129 115.698 53.467 117.432L45.2797 138.886C45.0716 139.431 44.6356 139.858 44.0861 140.055L22.4708 147.805C20.7231 148.431 20.6981 150.894 22.4327 151.556L43.886 159.743C44.4314 159.951 44.8586 160.387 45.0556 160.937L52.8051 182.552Z" fill="#1E326D"/>
<path d="M233.671 514.931C236.068 517.768 240.7 516.093 240.727 512.38L241.08 464.689C241.088 463.521 241.607 462.416 242.498 461.663L278.932 430.886C281.769 428.49 280.093 423.858 276.38 423.831L228.689 423.478C227.522 423.469 226.416 422.951 225.663 422.059L194.887 385.626C192.491 382.789 187.859 384.464 187.831 388.178L187.478 435.869C187.47 437.036 186.952 438.141 186.06 438.895L149.626 469.671C146.79 472.067 148.465 476.699 152.178 476.727L199.869 477.079C201.036 477.088 202.142 477.606 202.895 478.498L233.671 514.931Z" fill="#1E326D"/>
<path d="M734.668 974.04C736.279 978.394 742.435 978.394 744.046 974.04L751.35 954.303C751.856 952.935 752.935 951.856 754.304 951.349L774.041 944.046C778.394 942.435 778.394 936.278 774.041 934.667L754.304 927.364C752.935 926.857 751.856 925.778 751.35 924.41L744.046 904.673C742.435 900.319 736.279 900.319 734.668 904.673L727.364 924.41C726.858 925.778 725.779 926.857 724.41 927.364L704.673 934.667C700.32 936.278 700.32 942.435 704.673 944.046L724.41 951.349C725.779 951.856 726.858 952.935 727.364 954.303L734.668 974.04Z" fill="#1E326D"/>
<path fill-rule="evenodd" clip-rule="evenodd" d="M7.36202 1032L9.073 1026.82C9.3477 1025.99 9.97188 1025.32 10.7818 1024.99L39.5362 1013.18C42.1123 1012.12 41.982 1008.43 39.3377 1007.55L9.82217 997.802C8.9908 997.528 8.32093 996.904 7.98829 996.094L0.000976562 976.646V1032H7.36202Z" fill="#1E326D"/>
<path fill-rule="evenodd" clip-rule="evenodd" d="M72.878 1032H91.2601L129.481 988.916C130.449 987.824 131.846 987.21 133.305 987.235L205.612 988.452C210.253 988.53 212.487 982.793 209.015 979.713L154.917 931.721C153.825 930.753 153.211 929.356 153.236 927.897L154.453 855.59C154.531 850.949 148.794 848.715 145.714 852.187L97.722 906.285C96.7536 907.377 95.3566 907.991 93.8975 907.966L21.5905 906.749C16.9496 906.671 14.716 912.408 18.1882 915.489L72.2862 963.48C73.3778 964.449 73.9919 965.846 73.9673 967.305L72.878 1032Z" fill="#1E326D"/>
<path fill-rule="evenodd" clip-rule="evenodd" d="M1238.1 451.49C1236.08 455.667 1229.95 455.074 1228.77 450.586L1213.82 393.886C1213.44 392.475 1212.47 391.297 1211.16 390.661L1158.38 365.104C1154.21 363.081 1154.8 356.953 1159.29 355.769L1215.99 340.817C1217.4 340.445 1218.58 339.475 1219.21 338.162L1244.77 285.387C1246.79 281.209 1252.92 281.803 1254.11 286.291L1269.06 342.99C1269.43 344.401 1270.4 345.579 1271.71 346.215L1280 350.229V392.6L1266.88 396.059C1265.47 396.431 1264.3 397.401 1263.66 398.715L1238.1 451.49Z" fill="#1E326D"/>
</svg>
