<svg width="1600" height="1289" viewBox="0 0 1600 1289" fill="none" xmlns="http://www.w3.org/2000/svg">
<path d="M0 0.750977H1600V1288.23H0V0.750977Z" fill="#2A3E78"/>
<path d="M1230.81 1101.75C1233.23 1105.71 1239.27 1104.53 1240.02 1099.96L1247.47 1054.27C1247.7 1052.83 1248.55 1051.56 1249.8 1050.8L1289.38 1026.72C1293.35 1024.31 1292.16 1018.26 1287.58 1017.51L1241.82 1010.08C1240.38 1009.85 1239.12 1009 1238.36 1007.75L1214.21 968.227C1211.79 964.268 1205.75 965.446 1205.01 970.023L1197.56 1015.71C1197.32 1017.15 1196.47 1018.42 1195.22 1019.18L1155.65 1043.26C1151.68 1045.67 1152.86 1051.72 1157.45 1052.47L1203.2 1059.9C1204.64 1060.13 1205.91 1060.98 1206.67 1062.23L1230.81 1101.75Z" fill="#1E326D"/>
<path d="M1391.39 972.613C1391.42 975.395 1394.9 976.636 1396.69 974.503L1412.7 955.453C1413.26 954.782 1414.09 954.39 1414.96 954.381L1439.86 954.106C1442.65 954.076 1443.89 950.596 1441.76 948.808L1422.68 932.842C1422.01 932.281 1421.62 931.454 1421.61 930.579L1421.33 905.718C1421.3 902.936 1417.82 901.695 1416.03 903.827L1400.03 922.878C1399.46 923.549 1398.64 923.941 1397.76 923.95L1372.86 924.224C1370.08 924.255 1368.83 927.735 1370.97 929.523L1390.04 945.488C1390.72 946.05 1391.11 946.877 1391.12 947.752L1391.39 972.613Z" fill="#1E326D"/>
<path d="M1066.07 370.614C1067.05 372.192 1069.46 371.708 1069.75 369.876L1072.63 351.599C1072.72 351.022 1073.06 350.515 1073.56 350.209L1089.33 340.5C1090.91 339.526 1090.42 337.11 1088.58 336.821L1070.28 333.948C1069.71 333.857 1069.2 333.519 1068.89 333.023L1059.16 317.276C1058.18 315.697 1055.77 316.182 1055.48 318.014L1052.6 336.291C1052.51 336.867 1052.17 337.375 1051.67 337.681L1035.9 347.39C1034.32 348.364 1034.81 350.78 1036.65 351.068L1054.95 353.942C1055.52 354.033 1056.03 354.371 1056.34 354.867L1066.07 370.614Z" fill="#1E326D"/>
<path d="M984.104 461.146C984.047 463 986.329 463.923 987.581 462.553L1009.6 438.462C1009.99 438.031 1010.56 437.793 1011.14 437.811L1043.79 438.811C1045.64 438.868 1046.57 436.584 1045.2 435.334L1021.07 413.365C1020.64 412.972 1020.4 412.411 1020.42 411.828L1021.42 379.235C1021.47 377.381 1019.19 376.458 1017.94 377.829L995.923 401.92C995.529 402.351 994.966 402.588 994.383 402.571L961.735 401.571C959.877 401.514 958.95 403.797 960.323 405.047L984.455 427.016C984.886 427.409 985.124 427.971 985.106 428.554L984.104 461.146Z" fill="#1E326D"/>
<path d="M586.474 837.37C587.309 839.028 589.755 838.754 590.201 836.954L596.726 810.673C596.866 810.107 597.247 809.63 597.769 809.368L621.995 797.209C623.655 796.376 623.38 793.927 621.576 793.481L595.256 786.972C594.689 786.832 594.211 786.451 593.949 785.93L581.761 761.741C580.926 760.084 578.481 760.357 578.034 762.158L571.51 788.438C571.369 789.005 570.988 789.481 570.466 789.743L546.24 801.902C544.58 802.735 544.855 805.185 546.659 805.631L572.98 812.139C573.546 812.28 574.024 812.66 574.286 813.182L586.474 837.37Z" fill="#1E326D"/>
<path d="M66.4622 229.766C67.0894 231.512 69.5498 231.537 70.2125 229.804L81.0103 201.566C81.2188 201.02 81.655 200.593 82.2046 200.397L110.701 190.2C112.45 189.574 112.475 187.109 110.739 186.448L82.4564 175.676C81.9109 175.468 81.4834 175.032 81.2861 174.483L71.0657 146.031C70.4385 144.285 67.978 144.26 67.3154 145.993L56.5176 174.232C56.3091 174.777 55.8728 175.204 55.3232 175.4L26.8271 185.597C25.0778 186.223 25.0527 188.688 26.7889 189.349L55.0715 200.121C55.6169 200.329 56.0444 200.765 56.2418 201.314L66.4622 229.766Z" fill="#1E326D"/>
<path d="M293.832 645.217C296.231 648.051 300.861 646.38 300.888 642.67L301.352 580.02C301.361 578.853 301.88 577.749 302.772 576.997L350.713 536.579C353.552 534.185 351.873 529.551 348.156 529.524L285.402 529.06C284.234 529.052 283.128 528.534 282.373 527.642L241.864 479.781C239.466 476.947 234.836 478.618 234.808 482.328L234.344 544.978C234.335 546.145 233.817 547.249 232.925 548.001L184.984 588.419C182.144 590.813 183.824 595.447 187.54 595.475L250.295 595.938C251.463 595.946 252.569 596.464 253.324 597.356L293.832 645.217Z" fill="#1E326D"/>
<path d="M919.507 1219.09C921.12 1223.44 927.271 1223.44 928.884 1219.09L939.385 1190.76C939.892 1189.4 940.972 1188.32 942.34 1187.81L970.691 1177.34C975.048 1175.73 975.048 1169.57 970.691 1167.96L942.34 1157.49C940.972 1156.99 939.892 1155.91 939.385 1154.54L928.884 1126.22C927.271 1121.87 921.12 1121.87 919.507 1126.22L909.007 1154.54C908.499 1155.91 907.42 1156.99 906.051 1157.49L877.7 1167.96C873.343 1169.57 873.343 1175.73 877.7 1177.34L906.051 1187.81C907.42 1188.32 908.499 1189.4 909.007 1190.76L919.507 1219.09Z" fill="#1E326D"/>
<path fill-rule="evenodd" clip-rule="evenodd" d="M9.2038 1288.23L11.45 1281.45C11.7252 1280.61 12.3498 1279.94 13.1599 1279.61L51.28 1263.99C53.8585 1262.93 53.7278 1259.24 51.0811 1258.36L11.9519 1245.46C11.1203 1245.18 10.45 1244.56 10.1168 1243.75L0.00195312 1219.17V1288.23H9.2038Z" fill="#1E326D"/>
<path fill-rule="evenodd" clip-rule="evenodd" d="M91.0987 1288.23H114.076L162.232 1234.05C163.201 1232.96 164.6 1232.35 166.059 1232.37L260.369 1233.96C265.014 1234.04 267.253 1228.3 263.778 1225.22L193.218 1162.75C192.126 1161.78 191.512 1160.38 191.536 1158.93L193.125 1064.78C193.203 1060.14 187.468 1057.91 184.384 1061.38L121.775 1131.82C120.805 1132.91 119.407 1133.53 117.947 1133.5L23.6372 1131.92C18.992 1131.84 16.7531 1137.58 20.2285 1140.65L90.7882 1203.13C91.8803 1204.09 92.4946 1205.49 92.47 1206.95L91.0987 1288.23Z" fill="#1E326D"/>
<path fill-rule="evenodd" clip-rule="evenodd" d="M1546.15 567.047C1544.13 571.221 1538 570.629 1536.82 566.145L1517.12 491.596C1516.75 490.185 1515.78 489.008 1514.46 488.373L1444.97 454.783C1440.78 452.762 1441.38 446.628 1445.87 445.446L1520.54 425.794C1521.95 425.422 1523.13 424.453 1523.77 423.14L1557.43 353.75C1559.46 349.576 1565.58 350.168 1566.77 354.652L1586.47 429.202C1586.84 430.612 1587.81 431.79 1589.12 432.425L1600 437.682V490.542L1583.05 495.004C1581.64 495.375 1580.46 496.345 1579.82 497.658L1546.15 567.047Z" fill="#1E326D"/>
</svg>
