<svg width="1455" height="361" viewBox="0 0 1455 361" fill="none" xmlns="http://www.w3.org/2000/svg">
<path d="M519.024 39.6887C449.865 38.603 60.8705 36.9525 34.8328 44.4768C8.79501 52.0011 6.02495 70.242 6.02495 93.727L6.02495 177.407C6.02495 192.911 -0.622986 263.594 6.02495 309.652C12.6729 355.71 50.8985 352.746 85.8002 356.166C120.702 359.586 274.158 356.166 352.826 356.166H630.931C683.561 356.166 809.871 358.446 858.069 358.446L1273.01 358.446C1345.03 358.446 1361.65 340.662 1361.65 334.505V234.181V139.329C1361.65 126.332 1471.58 20.3927 1448.84 4.60134C1431.11 -7.71115 1203.21 43.5649 1173.85 43.5649C1144.48 43.5649 936.736 34.9005 885.769 39.6887C834.801 44.4768 583.832 40.706 519.024 39.6887Z" fill="white" stroke="#3B3B3B" stroke-width="5"/>
</svg>
