<svg width="2217" height="1657" viewBox="0 0 2217 1657" fill="none" xmlns="http://www.w3.org/2000/svg">
<path fill-rule="evenodd" clip-rule="evenodd" d="M360.741 962.033C239.91 956.197 92.5208 949.079 0 962.954V1657H2216.5V927C2063.96 945.433 1703.8 980.9 1483.44 975.306C1347.8 971.863 1250.94 965.954 1170.26 961.033C1087.11 955.96 1021.15 951.936 947.64 952.742C887.484 953.402 820.585 956.529 752.543 959.71L752.54 959.71C656.76 964.187 558.717 968.77 474.038 966.726C441.808 965.948 402.891 964.068 360.741 962.033Z" fill="#AFE0F9"/>
<path fill-rule="evenodd" clip-rule="evenodd" d="M2216.53 1239.66C2215.95 1239.42 2215.38 1239.19 2214.8 1238.96V0.334473H0.000717787V1232.5L0 1232.5V1632.76C27.9108 1643.82 58.6111 1649.94 90.8416 1649.94C194.356 1649.94 282.086 1586.83 312.315 1499.58C321.951 1500.71 331.77 1501.3 341.736 1501.3C410.809 1501.3 472.854 1473.2 515.477 1428.58C557.977 1471.32 618.677 1498.07 686.068 1498.07C746.373 1498.07 801.32 1476.65 842.663 1441.52C884.005 1476.65 938.952 1498.07 999.257 1498.07C1060.59 1498.07 1116.38 1475.91 1157.96 1439.71C1181.15 1536.89 1274.04 1609.55 1385.11 1609.55C1475.72 1609.55 1554.23 1561.2 1592.68 1490.63C1635.28 1534.87 1697.05 1562.69 1765.78 1562.69C1818.92 1562.69 1867.9 1546.06 1907.08 1518.07C1940.92 1599.04 2025.26 1656.4 2123.96 1656.4C2156.85 1656.4 2188.16 1650.03 2216.53 1638.53V1239.66Z" fill="white"/>
<path fill-rule="evenodd" clip-rule="evenodd" d="M1890.83 223C1864.46 223 1842.2 205.285 1835.18 181.046C1825.14 189.459 1812.22 194.52 1798.12 194.52C1775.13 194.52 1755.26 181.058 1745.9 161.547C1741.19 162.789 1736.25 163.45 1731.16 163.45C1699.15 163.45 1673.21 137.368 1673.21 105.195C1673.21 73.0212 1699.15 46.9395 1731.16 46.9395C1737.55 46.9395 1743.7 47.98 1749.45 49.9016C1757.99 28.4401 1778.87 13.2801 1803.27 13.2801C1824.58 13.2801 1843.21 24.8488 1853.27 42.0811C1860.35 17.9482 1882.56 0.335009 1908.86 0.335009C1938 0.335009 1962.12 21.97 1966.19 50.1377C1994.21 54.2315 2015.73 78.4813 2015.73 107.784C2015.73 139.958 1989.79 166.04 1957.79 166.04C1954.72 166.04 1951.71 165.8 1948.77 165.339C1948.45 197.238 1922.63 223 1890.83 223Z" fill="#8ACDEE"/>
<path fill-rule="evenodd" clip-rule="evenodd" d="M1040.23 1343.28C1028.24 1343.28 1018.12 1351.45 1014.93 1362.62C1010.36 1358.74 1004.49 1356.41 998.075 1356.41C987.623 1356.41 978.592 1362.61 974.335 1371.61C972.196 1371.03 969.95 1370.73 967.635 1370.73C953.085 1370.73 941.29 1382.75 941.29 1397.58C941.29 1412.41 953.085 1424.43 967.635 1424.43C970.541 1424.43 973.337 1423.95 975.951 1423.07C979.835 1432.96 989.326 1439.95 1000.42 1439.95C1010.11 1439.95 1018.58 1434.61 1023.15 1426.67C1026.37 1437.79 1036.47 1445.91 1048.43 1445.91C1061.68 1445.91 1072.64 1435.94 1074.5 1422.96C1087.23 1421.07 1097.02 1409.89 1097.02 1396.39C1097.02 1381.56 1085.22 1369.53 1070.67 1369.53C1069.28 1369.53 1067.91 1369.64 1066.57 1369.86C1066.43 1355.15 1054.69 1343.28 1040.23 1343.28Z" fill="#8ACDEE"/>
<path fill-rule="evenodd" clip-rule="evenodd" d="M1371.69 7.29297C1387.67 7.29297 1401.16 13.1057 1405.41 21.0595C1411.5 18.299 1419.33 16.6383 1427.87 16.6383C1441.8 16.6383 1453.84 21.0553 1459.51 27.4571C1462.37 27.0498 1465.36 26.8329 1468.45 26.8329C1487.84 26.8329 1503.56 35.391 1503.56 45.9479C1503.56 56.5049 1487.84 65.0629 1468.45 65.0629C1464.57 65.0629 1460.85 64.7215 1457.36 64.091C1452.18 71.1327 1439.53 76.1067 1424.75 76.1067C1411.83 76.1067 1400.55 72.3107 1394.45 66.6562C1390.16 74.5754 1376.7 80.3553 1360.77 80.3553C1343.1 80.3553 1328.49 73.2562 1326.02 64.0136C1309.04 62.6705 1296 54.7134 1296 45.0982C1296 34.5413 1311.72 25.9832 1331.11 25.9832C1332.97 25.9832 1334.8 26.0619 1336.58 26.2135C1336.77 15.7461 1352.42 7.29297 1371.69 7.29297Z" fill="#8ACDEE"/>
<path fill-rule="evenodd" clip-rule="evenodd" d="M1217.53 1240.65C1242.98 1240.65 1264.46 1252.82 1271.23 1269.49C1280.92 1263.71 1293.39 1260.23 1306.99 1260.23C1329.17 1260.23 1348.34 1269.48 1357.37 1282.89C1361.91 1282.04 1366.68 1281.59 1371.59 1281.59C1402.47 1281.59 1427.5 1299.52 1427.5 1321.64C1427.5 1343.76 1402.47 1361.69 1371.59 1361.69C1365.43 1361.69 1359.49 1360.97 1353.95 1359.65C1345.7 1374.41 1325.56 1384.83 1302.02 1384.83C1281.46 1384.83 1263.48 1376.87 1253.77 1365.03C1246.94 1381.62 1225.51 1393.73 1200.14 1393.73C1172.02 1393.73 1148.74 1378.85 1144.81 1359.49C1117.78 1356.67 1097.02 1340 1097.02 1319.86C1097.02 1297.74 1122.05 1279.81 1152.93 1279.81C1155.89 1279.81 1158.79 1279.97 1161.63 1280.29C1161.93 1258.36 1186.85 1240.65 1217.53 1240.65Z" fill="#8ACDEE"/>
<path fill-rule="evenodd" clip-rule="evenodd" d="M0 736.199C10.1542 732.305 18.1491 722.115 21.154 709.214C26.6455 721.058 36.8064 729.01 48.4333 729.01C61.7444 729.01 73.1342 718.588 77.7953 703.833C80.9328 705.155 84.2888 705.87 87.7767 705.87C105.237 705.87 119.391 687.939 119.391 665.82C119.391 643.701 105.237 625.769 87.7767 625.769C84.9979 625.769 82.3029 626.223 79.7353 627.076C74.6267 613.663 63.7894 604.408 51.2459 604.408C43.5546 604.408 36.5048 607.888 31.0239 613.672C27.1975 597.007 15.0536 584.828 0.664265 584.828C0.442302 584.828 0.220873 584.831 0 584.837V736.199Z" fill="#8ACDEE"/>
<path fill-rule="evenodd" clip-rule="evenodd" d="M64.317 0.333496C62.0714 6.61932 60.8292 13.273 60.7479 20.1616C56.4883 19.5992 52.1226 19.3073 47.6762 19.3073C29.9712 19.3073 13.5453 23.9359 0.000488281 31.8393V148.773C10.3778 154.828 22.4461 158.961 35.4852 160.562C41.3896 194.892 76.3604 221.259 118.618 221.259C156.747 221.259 188.943 199.793 199.208 170.381C213.8 191.382 240.805 205.481 271.705 205.481C307.079 205.481 337.346 187.005 349.732 160.85C358.069 163.192 366.985 164.46 376.252 164.46C422.65 164.46 460.263 132.672 460.263 93.461C460.263 54.2496 422.65 22.4624 376.252 22.4624C368.867 22.4624 361.704 23.2678 354.88 24.7803C349.441 15.2546 341.559 6.91205 331.922 0.333496H226.424C226.092 0.5603 225.761 0.7892 225.433 1.02017C225.354 0.7908 225.274 0.561905 225.192 0.333496H64.317Z" fill="#8ACDEE"/>
<path fill-rule="evenodd" clip-rule="evenodd" d="M110.06 1341.75C117.074 1317.5 139.332 1299.79 165.707 1299.79C197.512 1299.79 223.332 1325.55 223.649 1357.45C226.588 1356.99 229.6 1356.75 232.667 1356.75C264.67 1356.75 290.613 1382.83 290.613 1415.01C290.613 1444.31 269.093 1468.56 241.075 1472.65C237.003 1500.82 212.882 1522.45 183.735 1522.45C157.436 1522.45 135.229 1504.84 128.149 1480.71C118.085 1497.94 99.4587 1509.51 78.1448 1509.51C53.7468 1509.51 32.8706 1494.35 24.3271 1472.89C18.5775 1474.81 12.4279 1475.85 6.03658 1475.85C3.99826 1475.85 1.98451 1475.74 0.000488281 1475.54V1359.65C1.98451 1359.45 3.99826 1359.34 6.03658 1359.34C11.1302 1359.34 16.0703 1360 20.7768 1361.24C30.1405 1341.73 50.0039 1328.27 72.9947 1328.27C87.0923 1328.27 100.014 1333.33 110.06 1341.75Z" fill="#8ACDEE"/>
<path fill-rule="evenodd" clip-rule="evenodd" d="M2216.53 1356.32C2209.06 1354.63 2201.1 1353.72 2192.84 1353.72C2157.63 1353.72 2127.91 1370.27 2118.43 1392.94C2104.95 1376.75 2080.02 1365.88 2051.49 1365.88C2018.83 1365.88 1990.88 1380.12 1979.44 1400.29C1971.74 1398.48 1963.51 1397.51 1954.96 1397.51C1912.12 1397.51 1877.39 1422.01 1877.39 1452.24C1877.39 1482.47 1912.12 1506.98 1954.96 1506.98C1961.78 1506.98 1968.39 1506.36 1974.69 1505.19C1987.23 1523.53 2013.82 1536.17 2044.6 1536.17C2063.47 1536.17 2080.77 1531.42 2094.21 1523.51C2103.6 1546.29 2133.4 1562.93 2168.71 1562.93C2186.75 1562.93 2203.35 1558.59 2216.53 1551.3V1356.32Z" fill="#8ACDEE"/>
<path fill-rule="evenodd" clip-rule="evenodd" d="M2214.8 453.07C2202.81 453.32 2192.5 462.503 2187.6 475.732C2185.1 474.88 2182.49 474.426 2179.78 474.426C2162.81 474.426 2149.05 492.357 2149.05 514.476C2149.05 536.596 2162.81 554.527 2179.78 554.527C2183.17 554.527 2186.44 553.812 2189.49 552.491C2193.63 565.999 2203.27 575.876 2214.8 577.447V453.07Z" fill="#8ACDEE"/>
<path d="M844.474 92.6711C736.385 88.5362 128.432 82.2498 87.7378 110.908C47.0437 139.566 42.7144 209.04 42.7144 298.488V617.201C42.7144 676.254 32.3245 945.467 42.7144 1120.89C53.1044 1296.31 112.847 1285.02 167.394 1298.05C221.941 1311.07 461.777 1298.05 584.725 1298.05H1019.37C1101.63 1298.05 1299.04 1306.73 1374.36 1306.73H2022.87C2135.43 1306.73 2161.4 1239 2161.4 1215.55V833.44V472.174C2161.4 422.673 2196.94 199.711 2161.4 139.566C2133.7 92.6711 1913.78 107.435 1867.89 107.435C1822 107.435 1497.31 74.4343 1417.65 92.6711C1338 110.908 945.762 96.5458 844.474 92.6711Z" fill="#E2F0F7" stroke="#3B3B3B" stroke-width="10"/>
</svg>
