<svg width="1600" height="1197" viewBox="0 0 1600 1197" fill="none" xmlns="http://www.w3.org/2000/svg">
<path fill-rule="evenodd" clip-rule="evenodd" d="M260.403 694.94C173.181 690.727 66.7878 685.589 0.00195312 695.605V1196.6H1599.98V669.651C1489.87 682.957 1229.89 708.559 1070.82 704.521C972.909 702.036 902.992 697.771 844.757 694.218C784.733 690.556 737.121 687.651 684.056 688.234C640.632 688.71 592.339 690.967 543.223 693.263C474.084 696.495 403.312 699.803 342.187 698.327C318.922 697.766 290.829 696.409 260.403 694.94H260.403Z" fill="#AFE0F9"/>
<path fill-rule="evenodd" clip-rule="evenodd" d="M1600 895.342C1599.59 895.174 1599.17 895.007 1598.75 894.842V0.73877H0.00262581V890.176L0.00195312 890.176V1179.11C20.1492 1187.09 42.3101 1191.5 65.5756 1191.5C140.297 1191.5 203.625 1145.95 225.446 1082.97C232.402 1083.79 239.49 1084.21 246.683 1084.21C296.544 1084.21 341.331 1063.92 372.098 1031.71C402.776 1062.57 446.594 1081.88 495.24 1081.88C538.771 1081.88 578.434 1066.42 608.277 1041.06C638.12 1066.42 677.784 1081.88 721.314 1081.88C765.588 1081.88 805.862 1065.88 835.871 1039.75C852.611 1109.9 919.669 1162.35 999.845 1162.35C1065.25 1162.35 1121.92 1127.45 1149.67 1076.51C1180.43 1108.44 1225.02 1128.53 1274.63 1128.53C1312.99 1128.53 1348.35 1116.52 1376.62 1096.32C1401.05 1154.76 1461.94 1196.17 1533.18 1196.17C1556.92 1196.17 1579.52 1191.57 1600 1183.27V895.342Z" fill="white"/>
<path fill-rule="evenodd" clip-rule="evenodd" d="M1364.9 161.469C1345.86 161.469 1329.79 148.682 1324.73 131.185C1317.48 137.258 1308.15 140.912 1297.97 140.912C1281.38 140.912 1267.04 131.194 1260.28 117.11C1256.88 118.006 1253.31 118.484 1249.63 118.484C1226.53 118.484 1207.81 99.6564 1207.81 76.432C1207.81 53.2076 1226.53 34.3805 1249.63 34.3805C1254.25 34.3805 1258.69 35.1316 1262.84 36.5188C1269.01 21.0266 1284.08 10.0832 1301.69 10.0832C1317.07 10.0832 1330.52 18.4344 1337.78 30.8738C1342.89 13.4536 1358.92 0.739687 1377.91 0.739687C1398.95 0.739687 1416.36 16.3569 1419.3 36.6896C1439.52 39.645 1455.06 57.1496 1455.06 78.3018C1455.06 101.526 1436.33 120.353 1413.23 120.353C1411.02 120.353 1408.84 120.18 1406.72 119.847C1406.49 142.874 1387.85 161.469 1364.9 161.469Z" fill="#8ACDEE"/>
<path fill-rule="evenodd" clip-rule="evenodd" d="M750.89 970.143C742.234 970.143 734.928 976.038 732.627 984.104C729.33 981.304 725.089 979.62 720.461 979.62C712.916 979.62 706.397 984.098 703.324 990.589C701.78 990.177 700.16 989.957 698.489 989.957C687.986 989.957 679.472 998.635 679.472 1009.34C679.472 1020.05 687.986 1028.72 698.489 1028.72C700.586 1028.72 702.605 1028.38 704.492 1027.74C707.296 1034.88 714.147 1039.92 722.154 1039.92C729.149 1039.92 735.262 1036.07 738.565 1030.34C740.888 1038.37 748.177 1044.23 756.808 1044.23C766.374 1044.23 774.29 1037.03 775.626 1027.66C784.82 1026.3 791.882 1018.23 791.882 1008.48C791.882 997.773 783.368 989.095 772.865 989.095C771.858 989.095 770.87 989.175 769.906 989.328C769.802 978.714 761.328 970.143 750.89 970.143Z" fill="#8ACDEE"/>
<path fill-rule="evenodd" clip-rule="evenodd" d="M990.155 5.76123C1001.69 5.76123 1011.43 9.95717 1014.5 15.6987C1018.89 13.7058 1024.54 12.507 1030.71 12.507C1040.76 12.507 1049.45 15.6953 1053.55 20.3163C1055.61 20.0223 1057.77 19.8657 1060 19.8657C1074 19.8657 1085.34 26.0434 1085.34 33.6639C1085.34 41.2844 1074 47.4621 1060 47.4621C1057.2 47.4621 1054.51 47.2157 1052 46.7605C1048.26 51.8437 1039.13 55.4343 1028.46 55.4343C1019.13 55.4343 1010.99 52.6939 1006.58 48.6121C1003.49 54.3285 993.773 58.5007 982.269 58.5007C969.52 58.5007 958.969 53.3765 957.188 46.705C944.932 45.7354 935.518 39.9916 935.518 33.0509C935.518 25.4304 946.866 19.2528 960.864 19.2528C962.206 19.2528 963.524 19.3095 964.81 19.4189C964.948 11.8631 976.242 5.76123 990.155 5.76123Z" fill="#8ACDEE"/>
<path fill-rule="evenodd" clip-rule="evenodd" d="M878.878 896.056C897.248 896.056 912.751 904.848 917.635 916.878C924.632 912.703 933.632 910.191 943.45 910.191C959.463 910.191 973.297 916.871 979.819 926.553C983.098 925.937 986.539 925.609 990.087 925.609C1012.38 925.609 1030.45 938.553 1030.45 954.519C1030.45 970.486 1012.38 983.43 990.087 983.43C985.635 983.43 981.352 982.914 977.347 981.96C971.396 992.61 956.856 1000.13 939.863 1000.13C925.019 1000.13 912.046 994.392 905.037 985.841C900.105 997.817 884.638 1006.56 866.322 1006.56C846.022 1006.56 829.223 995.821 826.385 981.843C806.871 979.812 791.882 967.777 791.882 953.235C791.882 937.268 809.951 924.324 832.24 924.324C834.377 924.324 836.475 924.443 838.522 924.672C838.742 908.841 856.726 896.056 878.878 896.056Z" fill="#8ACDEE"/>
<path fill-rule="evenodd" clip-rule="evenodd" d="M0.00195312 531.92C7.33088 529.109 13.1012 521.754 15.27 512.441C19.2339 520.991 26.5686 526.731 34.9614 526.731C44.5701 526.731 52.7917 519.208 56.1564 508.558C58.4212 509.512 60.8436 510.028 63.3613 510.028C75.9647 510.028 86.1818 497.084 86.1818 481.118C86.1818 465.151 75.9647 452.207 63.3613 452.207C61.3556 452.207 59.4104 452.535 57.5572 453.151C53.8694 443.469 46.0468 436.789 36.9927 436.789C31.4405 436.789 26.3515 439.301 22.395 443.476C19.6332 431.446 10.8669 422.654 0.479721 422.654C0.320077 422.654 0.160816 422.656 0.00195312 422.661V531.92Z" fill="#8ACDEE"/>
<path fill-rule="evenodd" clip-rule="evenodd" d="M46.428 0.737793C44.807 5.27526 43.9103 10.0783 43.8516 15.0509C40.7769 14.6449 37.6256 14.4342 34.416 14.4342C21.6351 14.4342 9.7776 17.7756 0 23.4812V107.888C7.49093 112.259 16.2027 115.243 25.6152 116.399C29.877 141.18 55.1208 160.214 85.6249 160.214C113.149 160.214 136.39 144.718 143.799 123.486C154.332 138.646 173.825 148.824 196.131 148.824C221.666 148.824 243.514 135.487 252.455 116.606C258.473 118.297 264.909 119.212 271.598 119.212C305.091 119.212 332.242 96.2666 332.242 67.9618C332.242 39.657 305.091 16.7115 271.598 16.7115C266.267 16.7115 261.097 17.2929 256.171 18.3848C252.245 11.5086 246.555 5.4865 239.598 0.737793H163.445C163.205 0.901607 162.967 1.06694 162.73 1.23376C162.673 1.06809 162.615 0.902767 162.556 0.737793H46.428Z" fill="#8ACDEE"/>
<path fill-rule="evenodd" clip-rule="evenodd" d="M79.4467 969.035C84.5089 951.537 100.577 938.749 119.615 938.749C142.574 938.749 161.212 957.345 161.441 980.372C163.562 980.038 165.736 979.865 167.951 979.865C191.051 979.865 209.778 998.693 209.778 1021.92C209.778 1043.07 194.244 1060.57 174.02 1063.53C171.081 1083.86 153.669 1099.48 132.629 1099.48C113.645 1099.48 97.6143 1086.76 92.5042 1069.34C85.2394 1081.78 71.7938 1090.13 56.4079 1090.13C38.7965 1090.13 23.7272 1079.19 17.5599 1063.7C13.4095 1065.09 8.97029 1065.84 4.3566 1065.84C2.88542 1065.84 1.43199 1065.76 0 1065.61V981.961C1.43199 981.812 2.88542 981.735 4.3566 981.735C8.03326 981.735 11.5991 982.212 14.9964 983.108C21.7555 969.024 36.094 959.307 52.6899 959.307C62.8668 959.307 72.1947 962.961 79.4467 969.035Z" fill="#8ACDEE"/>
<path fill-rule="evenodd" clip-rule="evenodd" d="M1600 979.553C1594.61 978.335 1588.86 977.677 1582.9 977.677C1557.49 977.677 1536.03 989.623 1529.19 1005.99C1519.46 994.303 1501.46 986.456 1480.86 986.456C1457.29 986.456 1437.11 996.738 1428.86 1011.29C1423.3 1009.99 1417.36 1009.29 1411.18 1009.29C1380.26 1009.29 1355.19 1026.98 1355.19 1048.8C1355.19 1070.62 1380.26 1088.31 1411.18 1088.31C1416.11 1088.31 1420.88 1087.86 1425.43 1087.02C1434.48 1100.25 1453.67 1109.38 1475.89 1109.38C1489.51 1109.38 1502 1105.95 1511.71 1100.24C1518.48 1116.69 1539.99 1128.7 1565.48 1128.7C1578.5 1128.7 1590.49 1125.56 1600 1120.3V979.553Z" fill="#8ACDEE"/>
<path fill-rule="evenodd" clip-rule="evenodd" d="M1598.75 327.545C1590.1 327.725 1582.65 334.354 1579.12 343.903C1577.32 343.288 1575.43 342.961 1573.48 342.961C1561.22 342.961 1551.29 355.904 1551.29 371.871C1551.29 387.838 1561.22 400.782 1573.48 400.782C1575.92 400.782 1578.28 400.265 1580.48 399.312C1583.47 409.063 1590.43 416.193 1598.75 417.327V327.545Z" fill="#8ACDEE"/>
<path d="M609.584 67.3917C531.56 64.407 92.7094 59.8691 63.3344 80.556C33.9594 101.243 30.8343 151.393 30.8343 215.961V446.023C30.8343 488.651 23.3343 682.982 30.8343 809.61C38.3343 936.239 81.4593 928.089 120.834 937.492C160.209 946.896 333.334 937.492 422.084 937.492H735.834C795.209 937.492 937.709 943.761 992.084 943.761H1460.21C1541.46 943.761 1560.21 894.865 1560.21 877.94V602.115V341.335C1560.21 305.604 1585.86 144.659 1560.21 101.243C1540.21 67.3917 1381.46 78.0487 1348.33 78.0487C1315.21 78.0487 1080.83 54.2275 1023.33 67.3917C965.834 80.556 682.699 70.1887 609.584 67.3917Z" fill="#E2F0F7" stroke="#3B3B3B" stroke-width="10"/>
</svg>
