<svg width="1801" height="1342" viewBox="0 0 1801 1342" fill="none" xmlns="http://www.w3.org/2000/svg">
<path fill-rule="evenodd" clip-rule="evenodd" d="M1800.8 1003.87C1800.33 1003.68 1799.86 1003.49 1799.4 1003.31V0.000976562H3.05176e-05V998.071L0 1322.29C22.6759 1331.25 47.6181 1336.2 73.8035 1336.2C157.903 1336.2 229.178 1285.09 253.738 1214.41C261.567 1215.33 269.544 1215.8 277.641 1215.8C333.759 1215.8 384.167 1193.04 418.795 1156.9C453.324 1191.52 502.64 1213.18 557.391 1213.18C606.385 1213.18 651.026 1195.84 684.614 1167.38C718.202 1195.84 762.844 1213.18 811.837 1213.18C861.668 1213.18 906.996 1195.24 940.772 1165.91C959.612 1244.63 1035.09 1303.49 1125.33 1303.49C1198.94 1303.49 1262.72 1264.32 1293.96 1207.16C1328.57 1243 1378.76 1265.53 1434.6 1265.53C1477.77 1265.53 1517.56 1252.06 1549.39 1229.39C1576.89 1294.97 1645.41 1341.44 1725.59 1341.44C1752.32 1341.44 1777.75 1336.28 1800.8 1326.96V1003.87Z" fill="white"/>
<path fill-rule="evenodd" clip-rule="evenodd" d="M1536.19 180.362C1514.76 180.362 1496.68 166.013 1490.98 146.378C1482.82 153.193 1472.32 157.293 1460.86 157.293C1442.19 157.293 1426.05 146.39 1418.44 130.586C1414.62 131.591 1410.6 132.127 1406.46 132.127C1380.46 132.127 1359.39 111 1359.39 84.9392C1359.39 58.8782 1380.46 37.7516 1406.46 37.7516C1411.66 37.7516 1416.65 38.5944 1421.33 40.1509C1428.27 22.7668 1445.23 10.487 1465.05 10.487C1482.37 10.487 1497.5 19.8578 1505.68 33.8162C1511.43 14.268 1529.47 0.000821302 1550.84 0.000821302C1574.52 0.000821302 1594.11 17.5257 1597.42 40.3422C1620.18 43.659 1637.67 63.3012 1637.67 87.0365C1637.67 113.097 1616.59 134.224 1590.59 134.224C1588.1 134.224 1585.65 134.03 1583.26 133.656C1583.01 159.495 1562.03 180.362 1536.19 180.362Z" fill="#8ACDEE"/>
<path fill-rule="evenodd" clip-rule="evenodd" d="M845.126 1087.8C835.384 1087.8 827.162 1094.42 824.572 1103.47C820.861 1100.33 816.088 1098.44 810.881 1098.44C802.388 1098.44 795.051 1103.46 791.592 1110.75C789.854 1110.29 788.029 1110.04 786.148 1110.04C774.327 1110.04 764.744 1119.78 764.744 1131.79C764.744 1143.8 774.327 1153.54 786.148 1153.54C788.509 1153.54 790.781 1153.15 792.905 1152.43C796.061 1160.45 803.772 1166.11 812.784 1166.11C820.656 1166.11 827.536 1161.79 831.254 1155.35C833.869 1164.36 842.072 1170.94 851.786 1170.94C862.552 1170.94 871.462 1162.86 872.966 1152.34C883.315 1150.82 891.263 1141.76 891.263 1130.82C891.263 1118.81 881.68 1109.07 869.859 1109.07C868.727 1109.07 867.614 1109.16 866.529 1109.33C866.412 1097.42 856.875 1087.8 845.126 1087.8Z" fill="#8ACDEE"/>
<path fill-rule="evenodd" clip-rule="evenodd" d="M1114.42 5.63721C1127.4 5.63721 1138.36 10.3456 1141.82 16.7883C1146.76 14.5522 1153.12 13.2071 1160.06 13.2071C1171.38 13.2071 1181.16 16.7849 1185.77 21.9705C1188.09 21.6406 1190.52 21.4649 1193.03 21.4649C1208.78 21.4649 1221.56 28.397 1221.56 36.9483C1221.56 45.4995 1208.78 52.4317 1193.03 52.4317C1189.88 52.4317 1186.85 52.1552 1184.02 51.6444C1179.82 57.3486 1169.54 61.3779 1157.53 61.3779C1147.03 61.3779 1137.86 58.3031 1132.91 53.7231C1129.42 60.1373 1118.49 64.8187 1105.54 64.8187C1091.19 64.8187 1079.32 59.0682 1077.32 51.5815C1063.52 50.4933 1052.93 44.0481 1052.93 36.2599C1052.93 27.7086 1065.7 20.7765 1081.45 20.7765C1082.96 20.7765 1084.45 20.8402 1085.89 20.9629C1086.05 12.4843 1098.76 5.63721 1114.42 5.63721Z" fill="#8ACDEE"/>
<path fill-rule="evenodd" clip-rule="evenodd" d="M989.177 1004.67C1009.85 1004.67 1027.3 1014.53 1032.8 1028.03C1040.67 1023.35 1050.8 1020.53 1061.85 1020.53C1079.88 1020.53 1095.45 1028.03 1102.79 1038.89C1106.48 1038.2 1110.35 1037.83 1114.34 1037.83C1139.43 1037.83 1159.77 1052.36 1159.77 1070.27C1159.77 1088.19 1139.43 1102.71 1114.34 1102.71C1109.33 1102.71 1104.51 1102.14 1100 1101.07C1093.31 1113.02 1076.94 1121.46 1057.82 1121.46C1041.11 1121.46 1026.51 1115.02 1018.62 1105.42C1013.07 1118.86 995.66 1128.67 975.045 1128.67C952.197 1128.67 933.289 1116.62 930.096 1100.93C908.133 1098.65 891.263 1085.15 891.263 1068.83C891.263 1050.91 911.6 1036.39 936.687 1036.39C939.091 1036.39 941.452 1036.52 943.756 1036.78C944.004 1019.02 964.244 1004.67 989.177 1004.67Z" fill="#8ACDEE"/>
<path fill-rule="evenodd" clip-rule="evenodd" d="M0 596.06C8.25025 592.906 14.746 584.651 17.1867 574.199C21.6479 583.795 29.9037 590.237 39.3508 590.237C50.1652 590.237 59.4186 581.795 63.2056 569.844C65.7547 570.915 68.4811 571.494 71.3147 571.494C85.4999 571.494 96.9992 556.97 96.9992 539.053C96.9992 521.136 85.4999 506.611 71.3147 506.611C69.0567 506.611 66.8666 506.979 64.7802 507.671C60.6299 496.805 51.8251 489.308 41.6341 489.308C35.3853 489.308 29.6578 492.127 25.2048 496.812C22.0961 483.313 12.2298 473.448 0.539264 473.448C0.35907 473.448 0.179309 473.451 0 473.455V596.06Z" fill="#8ACDEE"/>
<path fill-rule="evenodd" clip-rule="evenodd" d="M52.2535 0.000488281C50.4291 5.09205 49.4199 10.4816 49.3538 16.0614C45.8929 15.6058 42.3457 15.3693 38.733 15.3693C24.349 15.3693 11.0043 19.1183 0 25.5199V120.238C8.43101 125.143 18.2359 128.491 28.8294 129.788C33.6265 157.595 62.0382 178.953 96.3703 178.953C127.347 178.953 153.505 161.565 161.845 137.741C173.7 154.753 195.639 166.173 220.744 166.173C249.483 166.173 274.073 151.207 284.137 130.021C290.91 131.918 298.154 132.945 305.683 132.945C343.379 132.945 373.937 107.197 373.937 75.4354C373.937 43.6736 343.379 17.9255 305.683 17.9255C299.683 17.9255 293.863 18.5779 288.319 19.8031C283.901 12.087 277.497 5.32928 269.667 0.000488281H183.956C183.686 0.184147 183.418 0.369503 183.151 0.556537C183.087 0.370797 183.022 0.185446 182.956 0.000488281H52.2535Z" fill="#8ACDEE"/>
<path fill-rule="evenodd" clip-rule="evenodd" d="M89.4179 1086.56C95.1157 1066.93 113.2 1052.58 134.627 1052.58C160.467 1052.58 181.445 1073.44 181.702 1099.28C184.089 1098.91 186.536 1098.72 189.028 1098.72C215.028 1098.72 236.105 1119.84 236.105 1145.9C236.105 1169.64 218.622 1189.28 195.859 1192.6C192.551 1215.41 172.954 1232.94 149.274 1232.94C127.908 1232.94 109.866 1218.67 104.114 1199.12C95.937 1213.08 80.8047 1222.45 63.4888 1222.45C43.6666 1222.45 26.7057 1210.17 19.7648 1192.79C15.0933 1194.35 10.0968 1195.19 4.90382 1195.19C3.24785 1195.19 1.61185 1195.1 0 1194.94V1101.07C1.61185 1100.9 3.24785 1100.81 4.90382 1100.81C9.04246 1100.81 13.0563 1101.35 16.8804 1102.35C24.4879 1086.55 40.6258 1075.65 59.3043 1075.65C70.7578 1075.65 81.256 1079.75 89.4179 1086.56Z" fill="#8ACDEE"/>
<path fill-rule="evenodd" clip-rule="evenodd" d="M1800.8 1098.36C1794.74 1097 1788.27 1096.26 1781.56 1096.26C1752.96 1096.26 1728.8 1109.66 1721.1 1128.03C1710.16 1114.92 1689.9 1106.11 1666.72 1106.11C1640.18 1106.11 1617.48 1117.65 1608.19 1133.98C1601.93 1132.52 1595.24 1131.73 1588.29 1131.73C1553.49 1131.73 1525.27 1151.58 1525.27 1176.07C1525.27 1200.55 1553.49 1220.4 1588.29 1220.4C1593.83 1220.4 1599.21 1219.9 1604.32 1218.96C1614.51 1233.81 1636.11 1244.05 1661.12 1244.05C1676.45 1244.05 1690.5 1240.2 1701.43 1233.8C1709.06 1252.25 1733.27 1265.73 1761.95 1265.73C1776.61 1265.73 1790.1 1262.21 1800.8 1256.3V1098.36Z" fill="#8ACDEE"/>
<path fill-rule="evenodd" clip-rule="evenodd" d="M1799.4 366.724C1789.66 366.926 1781.28 374.365 1777.3 385.081C1775.27 384.389 1773.14 384.021 1770.95 384.021C1757.16 384.021 1745.98 398.546 1745.98 416.463C1745.98 434.38 1757.16 448.904 1770.95 448.904C1773.7 448.904 1776.35 448.325 1778.83 447.255C1782.2 458.198 1790.03 466.198 1799.4 467.471V366.724Z" fill="#8ACDEE"/>
<path d="M686.086 74.7946C598.271 71.4453 104.343 66.3533 71.2817 89.5667C38.2201 112.78 34.7028 169.055 34.7028 241.509V499.671C34.7028 547.505 26.2616 765.571 34.7028 907.665C43.1441 1049.76 91.6813 1040.61 135.998 1051.17C180.314 1061.72 375.167 1051.17 475.055 1051.17H828.181C895.008 1051.17 1055.39 1058.2 1116.59 1058.2H1643.47C1734.91 1058.2 1756.02 1003.33 1756.02 984.34V674.827V382.197C1756.02 342.101 1784.89 161.499 1756.02 112.78C1733.51 74.7946 1554.83 86.7532 1517.55 86.7532C1480.27 86.7532 1216.48 60.0226 1151.76 74.7946C1087.05 89.5667 768.377 77.9332 686.086 74.7946Z" fill="#E2F0F7" stroke="#3B3B3B" stroke-width="10"/>
</svg>
