<svg width="1600" height="1337" viewBox="0 0 1600 1337" fill="none" xmlns="http://www.w3.org/2000/svg">
<rect y="1174.23" width="1600" height="162.064" fill="#FFFED7"/>
<path fill-rule="evenodd" clip-rule="evenodd" d="M0.00195312 0.165283V1205.32C62.5133 1183.69 140.601 1163.21 223.74 1206.82C254.319 1222.86 279.258 1237.06 301.34 1249.63C385.691 1297.66 428.356 1321.95 584.441 1334.46C733.251 1346.38 904.621 1297.62 1073.49 1246.09C1202.19 1206.82 1324.74 1181.87 1432.28 1181.87C1498.38 1181.87 1555.1 1198.9 1600 1212.81L1600 0.165283H0.00195312Z" fill="#C5F4A8"/>
<path d="M1490.69 92.0584C1498.98 89.5058 1515.2 81.9522 1518.91 70.9762C1519.22 70.0577 1520.67 69.7897 1521.2 70.6006C1526.74 79.0556 1538.71 92.0584 1553.01 92.0584" stroke="#9AD675" stroke-width="7" stroke-linecap="round"/>
<path d="M1456.86 145.793C1465.16 143.24 1481.37 135.687 1485.08 124.711C1485.4 123.792 1486.84 123.524 1487.37 124.335C1492.91 132.79 1504.88 145.793 1519.18 145.793" stroke="#9AD675" stroke-width="7" stroke-linecap="round"/>
<path d="M1408.09 116.146C1416.38 113.593 1432.6 106.04 1436.31 95.0639C1436.62 94.1453 1438.06 93.8774 1438.6 94.6882C1444.14 103.143 1456.1 116.146 1470.41 116.146" stroke="#9AD675" stroke-width="7" stroke-linecap="round"/>
<path d="M1366.54 169.881C1374.83 167.328 1391.05 159.775 1394.76 148.799C1395.07 147.88 1396.52 147.612 1397.05 148.423C1402.59 156.878 1414.56 169.881 1428.86 169.881" stroke="#9AD675" stroke-width="7" stroke-linecap="round"/>
<path d="M1229.25 67.9703C1237.54 65.4177 1253.76 57.864 1257.47 46.8881C1257.78 45.9695 1259.23 45.7016 1259.76 46.5125C1265.3 54.9674 1277.27 67.9703 1291.57 67.9703" stroke="#9AD675" stroke-width="7" stroke-linecap="round"/>
<path d="M1268.99 105.028C1277.29 102.476 1293.5 94.9221 1297.22 83.9462C1297.53 83.0276 1298.97 82.7597 1299.5 83.5706C1305.04 92.0255 1317.01 105.028 1331.31 105.028" stroke="#9AD675" stroke-width="7" stroke-linecap="round"/>
<path d="M1290.67 145.793C1298.96 143.24 1315.18 135.687 1318.89 124.711C1319.2 123.792 1320.65 123.524 1321.18 124.335C1326.72 132.79 1338.69 145.793 1352.99 145.793" stroke="#9AD675" stroke-width="7" stroke-linecap="round"/>
<path d="M814.996 276.227C822.864 273.805 838.214 266.662 841.838 256.279C842.158 255.364 843.609 255.095 844.143 255.904C849.459 263.962 860.811 276.227 874.371 276.227" stroke="#9AD675" stroke-width="8" stroke-linecap="round"/>
<path d="M837.37 239.156C845.238 236.735 860.588 229.591 864.212 219.209C864.532 218.293 865.983 218.024 866.517 218.833C871.833 226.891 883.185 239.156 896.745 239.156" stroke="#9AD675" stroke-width="8" stroke-linecap="round"/>
<path d="M896.696 44.4055C904.564 41.9843 919.914 34.8405 923.539 24.4583C923.858 23.5429 925.309 23.2736 925.843 24.083C931.159 32.1405 942.511 44.4055 956.072 44.4055" stroke="#9AD675" stroke-width="8" stroke-linecap="round"/>
<path d="M606.441 1240.95C600.787 1239.21 589.93 1234.19 586.795 1226.88C586.413 1225.99 584.902 1225.72 584.352 1226.52C580.239 1232.49 572.055 1240.95 562.348 1240.95" stroke="#9AD675" stroke-width="7" stroke-linecap="round"/>
<path d="M589.826 1213.42C584.172 1211.68 573.315 1206.66 570.18 1199.35C569.798 1198.46 568.287 1198.19 567.737 1198.99C563.623 1204.96 555.44 1213.42 545.732 1213.42" stroke="#9AD675" stroke-width="7" stroke-linecap="round"/>
<path d="M633.281 1196.38C627.627 1194.64 616.77 1189.61 613.635 1182.31C613.253 1181.41 611.742 1181.15 611.192 1181.95C607.078 1187.92 598.895 1196.38 589.188 1196.38" stroke="#9AD675" stroke-width="7" stroke-linecap="round"/>
<path d="M325.519 514.725C332.268 512.648 345.346 506.576 348.733 497.748C349.08 496.842 350.558 496.575 351.099 497.38C355.813 504.389 365.564 514.725 377.174 514.725" stroke="#9AD675" stroke-width="8" stroke-linecap="round"/>
<path d="M292.579 559.262C299.329 557.185 312.407 551.114 315.793 542.286C316.141 541.38 317.619 541.113 318.16 541.917C322.874 548.927 332.624 559.262 344.235 559.262" stroke="#9AD675" stroke-width="8" stroke-linecap="round"/>
<path d="M610.312 587.237C606.024 585.917 597.926 582.193 595.15 576.771C594.708 575.908 593.134 575.644 592.568 576.431C589.227 581.077 582.993 587.237 575.65 587.237" stroke="#9AD675" stroke-width="7" stroke-linecap="round"/>
<path d="M633.421 617.123C629.132 615.803 621.035 612.079 618.258 606.657C617.816 605.794 616.242 605.53 615.676 606.317C612.335 610.963 606.101 617.123 598.759 617.123" stroke="#9AD675" stroke-width="7" stroke-linecap="round"/>
<path d="M805.792 849.265C810.081 847.945 818.178 844.221 820.955 838.799C821.397 837.936 822.971 837.671 823.537 838.459C826.878 843.105 833.112 849.265 840.454 849.265" stroke="#9AD675" stroke-width="6" stroke-linecap="round"/>
<path d="M827.896 869.876C832.184 868.556 840.282 864.832 843.058 859.41C843.5 858.547 845.074 858.282 845.64 859.07C848.981 863.716 855.215 869.876 862.558 869.876" stroke="#9AD675" stroke-width="6" stroke-linecap="round"/>
<path d="M839.951 892.547C844.24 891.228 852.337 887.504 855.114 882.082C855.556 881.219 857.13 880.954 857.696 881.742C861.037 886.388 867.271 892.547 874.613 892.547" stroke="#9AD675" stroke-width="6" stroke-linecap="round"/>
<path d="M428.361 944.085C432.65 942.765 440.748 939.041 443.524 933.619C443.966 932.756 445.54 932.492 446.106 933.279C449.447 937.925 455.681 944.085 463.023 944.085" stroke="#9AD675" stroke-width="6" stroke-linecap="round"/>
<path d="M441.422 922.443C445.711 921.123 453.808 917.4 456.585 911.978C457.027 911.115 458.6 910.85 459.167 911.637C462.508 916.284 468.742 922.443 476.084 922.443" stroke="#9AD675" stroke-width="6" stroke-linecap="round"/>
<path d="M867.201 1122.53C863.537 1121.4 856.696 1118.27 854.111 1113.71C853.633 1112.86 852.017 1112.6 851.44 1113.38C848.465 1117.41 843.123 1122.53 836.859 1122.53" stroke="#9AD675" stroke-width="6" stroke-linecap="round"/>
<path d="M930.524 1160.42C926.86 1159.29 920.02 1156.16 917.434 1151.6C916.956 1150.75 915.34 1150.49 914.764 1151.27C911.789 1155.3 906.446 1160.42 900.182 1160.42" stroke="#9AD675" stroke-width="6" stroke-linecap="round"/>
<path d="M997.364 1110.8C993.699 1109.67 986.859 1106.54 984.273 1101.98C983.795 1101.14 982.179 1100.88 981.603 1101.66C978.628 1105.68 973.286 1110.8 967.022 1110.8" stroke="#9AD675" stroke-width="6" stroke-linecap="round"/>
<path d="M967.463 1148.69C963.799 1147.56 956.959 1144.43 954.373 1139.87C953.895 1139.02 952.279 1138.76 951.703 1139.54C948.728 1143.57 943.385 1148.69 937.121 1148.69" stroke="#9AD675" stroke-width="6" stroke-linecap="round"/>
<path d="M1052.77 1179.36C1049.11 1178.23 1042.27 1175.1 1039.68 1170.54C1039.2 1169.7 1037.59 1169.44 1037.01 1170.22C1034.04 1174.24 1028.69 1179.36 1022.43 1179.36" stroke="#9AD675" stroke-width="6" stroke-linecap="round"/>
<path d="M1071.24 1148.69C1067.58 1147.56 1060.74 1144.43 1058.15 1139.87C1057.67 1139.02 1056.06 1138.76 1055.48 1139.54C1052.5 1143.57 1047.16 1148.69 1040.9 1148.69" stroke="#9AD675" stroke-width="6" stroke-linecap="round"/>
<path d="M541.695 85.1347C538.675 84.2052 533.124 81.6788 530.764 77.9976C530.241 77.1814 528.568 76.9261 527.978 77.6957C525.394 81.066 520.97 85.1347 515.814 85.1347" stroke="#9AD675" stroke-width="6" stroke-linecap="round"/>
<path d="M595.709 117.453C592.688 116.524 587.138 113.997 584.778 110.316C584.254 109.5 582.582 109.244 581.992 110.014C579.408 113.384 574.984 117.453 569.828 117.453" stroke="#9AD675" stroke-width="6" stroke-linecap="round"/>
<path d="M652.724 75.1313C649.703 74.2018 644.153 71.6754 641.792 67.9942C641.269 67.1779 639.596 66.9227 639.006 67.6922C636.423 71.0626 631.999 75.1313 626.842 75.1313" stroke="#9AD675" stroke-width="6" stroke-linecap="round"/>
<path d="M627.217 107.45C624.196 106.521 618.646 103.994 616.285 100.313C615.762 99.4968 614.09 99.2416 613.5 100.011C610.916 103.381 606.492 107.45 601.335 107.45" stroke="#9AD675" stroke-width="6" stroke-linecap="round"/>
<path d="M699.984 133.612C696.964 132.683 691.413 130.157 689.053 126.475C688.53 125.659 686.857 125.404 686.267 126.173C683.684 129.544 679.259 133.612 674.103 133.612" stroke="#9AD675" stroke-width="6" stroke-linecap="round"/>
<path d="M715.738 107.45C712.718 106.521 707.167 103.994 704.807 100.313C704.284 99.4968 702.611 99.2416 702.021 100.011C699.437 103.381 695.013 107.45 689.857 107.45" stroke="#9AD675" stroke-width="6" stroke-linecap="round"/>
<path d="M1486.28 929.486C1492.77 927.49 1505.31 921.672 1508.63 913.211C1508.99 912.309 1510.47 912.043 1511.02 912.846C1515.59 919.606 1524.96 929.486 1536.11 929.486" stroke="#9AD675" stroke-width="7" stroke-linecap="round"/>
<path d="M1454.51 972.447C1460.99 970.452 1473.53 964.634 1476.86 956.173C1477.21 955.27 1478.7 955.005 1479.24 955.808C1483.81 962.568 1493.19 972.447 1504.33 972.447" stroke="#9AD675" stroke-width="7" stroke-linecap="round"/>
<path d="M1415.51 948.744C1422 946.749 1434.54 940.931 1437.86 932.47C1438.22 931.567 1439.71 931.302 1440.25 932.105C1444.82 938.865 1454.19 948.744 1465.34 948.744" stroke="#9AD675" stroke-width="7" stroke-linecap="round"/>
<path d="M1382.29 991.706C1388.78 989.711 1401.32 983.893 1404.65 975.432C1405 974.529 1406.49 974.264 1407.03 975.067C1411.6 981.827 1420.97 991.706 1432.12 991.706" stroke="#9AD675" stroke-width="7" stroke-linecap="round"/>
<path d="M74.8213 644.312C71.2576 643.215 64.6196 640.178 62.0672 635.754C61.5827 634.914 59.9594 634.654 59.3812 635.432C56.4667 639.356 51.268 644.312 45.1773 644.312" stroke="#9AD675" stroke-width="6" stroke-linecap="round"/>
<path d="M93.7246 669.871C90.1609 668.775 83.523 665.738 80.9706 661.313C80.486 660.473 78.8627 660.213 78.2846 660.991C75.37 664.915 70.1713 669.871 64.0806 669.871" stroke="#9AD675" stroke-width="6" stroke-linecap="round"/>
<path d="M111.645 653.755C108.081 652.658 101.443 649.621 98.8905 645.197C98.406 644.357 96.7826 644.096 96.2045 644.875C93.2899 648.799 88.0912 653.755 82.0005 653.755" stroke="#9AD675" stroke-width="6" stroke-linecap="round"/>
<path d="M105.943 1135.77C100.101 1133.97 88.8627 1128.76 85.6828 1121.19C85.3073 1120.3 83.8025 1120.03 83.2541 1120.83C79.0365 1126.98 70.5838 1135.77 60.5502 1135.77" stroke="#9AD675" stroke-width="7" stroke-linecap="round"/>
<path d="M164.576 978.524C158.734 976.726 147.496 971.523 144.316 963.953C143.94 963.059 142.435 962.792 141.887 963.591C137.669 969.741 129.217 978.524 119.183 978.524" stroke="#9AD675" stroke-width="7" stroke-linecap="round"/>
<path d="M135.629 1005.52C129.787 1003.72 118.548 998.515 115.368 990.944C114.993 990.051 113.488 989.784 112.94 990.583C108.722 996.733 100.269 1005.52 90.2358 1005.52" stroke="#9AD675" stroke-width="7" stroke-linecap="round"/>
<path d="M119.84 1035.21C113.997 1033.41 102.759 1028.21 99.5793 1020.64C99.2038 1019.74 97.699 1019.47 97.1506 1020.27C92.933 1026.42 84.4803 1035.21 74.4467 1035.21" stroke="#9AD675" stroke-width="7" stroke-linecap="round"/>
<path d="M123.964 165.567C120.4 164.47 113.762 161.433 111.21 157.009C110.725 156.169 109.102 155.908 108.524 156.687C105.609 160.611 100.411 165.567 94.3198 165.567" stroke="#9AD675" stroke-width="6" stroke-linecap="round"/>
<path d="M112.794 147.058C109.23 145.962 102.592 142.925 100.04 138.5C99.5554 137.66 97.932 137.4 97.3539 138.178C94.4393 142.102 89.2406 147.058 83.1499 147.058" stroke="#9AD675" stroke-width="6" stroke-linecap="round"/>
<path d="M142.008 135.601C138.444 134.504 131.806 131.467 129.254 127.043C128.769 126.203 127.146 125.942 126.568 126.721C123.653 130.645 118.455 135.601 112.364 135.601" stroke="#9AD675" stroke-width="6" stroke-linecap="round"/>
</svg>
