<svg width="1280" height="1254" viewBox="0 0 1280 1254" fill="none" xmlns="http://www.w3.org/2000/svg">
<path fill-rule="evenodd" clip-rule="evenodd" d="M1280 135.261C1249.63 126.865 1220.24 123.44 1188.68 119.762C1135.41 113.554 1075.98 106.628 995.264 73.8529C824.413 4.47577 765.865 3.27668 637.622 0.650243C629.574 0.485415 621.251 0.314965 612.609 0.121689C502.59 -2.33883 419.089 32.8698 322.858 73.4456C291.082 86.8442 257.917 100.828 221.952 114.234C164.349 135.705 72.3788 128.381 0 120.575V1149.04C50.0091 1131.69 112.479 1115.28 178.99 1150.24C203.453 1163.09 223.404 1174.48 241.07 1184.55C308.551 1223.05 342.683 1242.52 467.551 1252.54C586.599 1262.1 723.695 1223.02 858.789 1181.72C961.75 1150.24 1059.79 1130.24 1145.82 1130.24C1198.7 1130.24 1244.08 1143.89 1280 1155.04V135.261Z" fill="#C5F4A8"/>
<path d="M1222.3 230.816C1229.2 228.689 1242.59 222.46 1246.01 213.404C1246.35 212.497 1247.82 212.229 1248.36 213.035C1253.16 220.201 1263.13 230.816 1275 230.816" stroke="#9AD675" stroke-width="7" stroke-linecap="round"/>
<path d="M1193.7 276.342C1200.6 274.214 1213.98 267.986 1217.4 258.93C1217.74 258.023 1219.22 257.754 1219.76 258.561C1224.56 265.727 1234.52 276.342 1246.4 276.342" stroke="#9AD675" stroke-width="7" stroke-linecap="round"/>
<path d="M1152.45 251.224C1159.35 249.097 1172.74 242.868 1176.16 233.812C1176.5 232.905 1177.98 232.637 1178.52 233.443C1183.31 240.609 1193.28 251.224 1205.15 251.224" stroke="#9AD675" stroke-width="7" stroke-linecap="round"/>
<path d="M1117.32 296.751C1124.22 294.623 1137.61 288.394 1141.03 279.339C1141.37 278.431 1142.84 278.163 1143.38 278.969C1148.18 286.135 1158.15 296.751 1170.02 296.751" stroke="#9AD675" stroke-width="7" stroke-linecap="round"/>
<path d="M1001.23 210.408C1008.13 208.28 1021.52 202.052 1024.94 192.996C1025.28 192.089 1026.75 191.82 1027.29 192.627C1032.09 199.792 1042.06 210.408 1053.93 210.408" stroke="#9AD675" stroke-width="7" stroke-linecap="round"/>
<path d="M1034.84 241.805C1041.74 239.677 1055.12 233.449 1058.54 224.393C1058.88 223.486 1060.36 223.217 1060.9 224.024C1065.7 231.189 1075.66 241.805 1087.54 241.805" stroke="#9AD675" stroke-width="7" stroke-linecap="round"/>
<path d="M1053.17 276.342C1060.07 274.214 1073.45 267.986 1076.87 258.93C1077.21 258.023 1078.69 257.754 1079.23 258.561C1084.03 265.727 1093.99 276.342 1105.87 276.342" stroke="#9AD675" stroke-width="7" stroke-linecap="round"/>
<path d="M650.947 386.851C657.486 384.834 670.138 378.952 673.479 370.398C673.831 369.495 675.317 369.229 675.859 370.033C680.46 376.858 689.909 386.851 701.153 386.851" stroke="#9AD675" stroke-width="8" stroke-linecap="round"/>
<path d="M669.865 355.443C676.405 353.427 689.057 347.544 692.398 338.991C692.75 338.087 694.236 337.821 694.778 338.626C699.379 345.45 708.828 355.443 720.072 355.443" stroke="#9AD675" stroke-width="8" stroke-linecap="round"/>
<path d="M720.03 190.443C726.57 188.427 739.222 182.544 742.562 173.991C742.915 173.087 744.401 172.821 744.943 173.626C749.544 180.45 758.993 190.443 770.237 190.443" stroke="#9AD675" stroke-width="8" stroke-linecap="round"/>
<path d="M474.595 1204.2C469.927 1202.76 461.064 1198.67 458.181 1192.71C457.759 1191.84 456.202 1191.58 455.642 1192.37C452.082 1197.4 445.308 1204.2 437.311 1204.2" stroke="#9AD675" stroke-width="7" stroke-linecap="round"/>
<path d="M460.546 1180.88C455.878 1179.44 447.015 1175.35 444.132 1169.39C443.709 1168.52 442.153 1168.25 441.592 1169.04C438.033 1174.07 431.258 1180.88 423.261 1180.88" stroke="#9AD675" stroke-width="7" stroke-linecap="round"/>
<path d="M497.291 1166.44C492.623 1165 483.76 1160.91 480.877 1154.95C480.454 1154.08 478.898 1153.81 478.337 1154.6C474.778 1159.63 468.003 1166.44 460.006 1166.44" stroke="#9AD675" stroke-width="7" stroke-linecap="round"/>
<path d="M237.052 588.915C242.646 587.19 253.382 582.214 256.502 574.974C256.886 574.083 258.401 573.815 258.951 574.614C263.031 580.538 271.129 588.915 280.732 588.915" stroke="#9AD675" stroke-width="8" stroke-linecap="round"/>
<path d="M209.198 626.649C214.792 624.924 225.528 619.948 228.648 612.708C229.032 611.817 230.547 611.55 231.097 612.349C235.177 618.273 243.275 626.649 252.878 626.649" stroke="#9AD675" stroke-width="8" stroke-linecap="round"/>
<path d="M477.869 650.35C474.354 649.266 467.813 646.269 465.276 641.903C464.789 641.064 463.16 640.803 462.582 641.582C459.696 645.465 454.566 650.35 448.559 650.35" stroke="#9AD675" stroke-width="7" stroke-linecap="round"/>
<path d="M497.409 675.671C493.894 674.587 487.353 671.59 484.816 667.223C484.329 666.384 482.7 666.124 482.122 666.903C479.236 670.785 474.106 675.671 468.099 675.671" stroke="#9AD675" stroke-width="7" stroke-linecap="round"/>
<path d="M643.163 872.35C646.678 871.266 653.219 868.269 655.756 863.903C656.243 863.064 657.872 862.803 658.45 863.582C661.336 867.465 666.466 872.35 672.473 872.35" stroke="#9AD675" stroke-width="6" stroke-linecap="round"/>
<path d="M661.853 889.813C665.368 888.729 671.909 885.731 674.446 881.365C674.933 880.526 676.562 880.266 677.14 881.044C680.026 884.927 685.156 889.813 691.163 889.813" stroke="#9AD675" stroke-width="6" stroke-linecap="round"/>
<path d="M672.048 909.021C675.563 907.937 682.104 904.94 684.64 900.573C685.128 899.735 686.756 899.474 687.335 900.253C690.221 904.136 695.35 909.021 701.358 909.021" stroke="#9AD675" stroke-width="6" stroke-linecap="round"/>
<path d="M324.014 952.686C327.529 951.602 334.07 948.605 336.607 944.238C337.094 943.399 338.723 943.139 339.301 943.918C342.187 947.8 347.317 952.686 353.324 952.686" stroke="#9AD675" stroke-width="6" stroke-linecap="round"/>
<path d="M335.058 934.35C338.573 933.266 345.114 930.269 347.651 925.903C348.138 925.064 349.767 924.803 350.345 925.582C353.231 929.465 358.361 934.35 364.368 934.35" stroke="#9AD675" stroke-width="6" stroke-linecap="round"/>
<path d="M695.091 1103.87C692.102 1102.95 686.617 1100.45 684.269 1096.81C683.743 1095.99 682.066 1095.74 681.476 1096.5C678.912 1099.85 674.534 1103.87 669.434 1103.87" stroke="#9AD675" stroke-width="6" stroke-linecap="round"/>
<path d="M748.635 1135.97C745.647 1135.05 740.162 1132.55 737.814 1128.91C737.288 1128.09 735.611 1127.84 735.02 1128.61C732.457 1131.95 728.079 1135.97 722.979 1135.97" stroke="#9AD675" stroke-width="6" stroke-linecap="round"/>
<path d="M805.154 1093.94C802.166 1093.01 796.681 1090.51 794.333 1086.87C793.807 1086.05 792.13 1085.8 791.539 1086.57C788.976 1089.91 784.598 1093.94 779.498 1093.94" stroke="#9AD675" stroke-width="6" stroke-linecap="round"/>
<path d="M779.87 1126.04C776.882 1125.11 771.396 1122.61 769.048 1118.97C768.523 1118.15 766.845 1117.9 766.255 1118.67C763.692 1122.01 759.314 1126.04 754.213 1126.04" stroke="#9AD675" stroke-width="6" stroke-linecap="round"/>
<path d="M852.006 1152.02C849.018 1151.1 843.532 1148.6 841.184 1144.96C840.659 1144.14 838.981 1143.89 838.391 1144.66C835.827 1148 831.45 1152.02 826.349 1152.02" stroke="#9AD675" stroke-width="6" stroke-linecap="round"/>
<path d="M867.623 1126.04C864.635 1125.11 859.149 1122.61 856.801 1118.97C856.276 1118.15 854.598 1117.9 854.008 1118.67C851.444 1122.01 847.067 1126.04 841.966 1126.04" stroke="#9AD675" stroke-width="6" stroke-linecap="round"/>
<path d="M419.848 224.95C417.403 224.196 412.997 222.203 410.875 219.298C410.302 218.514 408.56 218.267 407.954 219.024C405.737 221.797 402.133 224.95 397.963 224.95" stroke="#9AD675" stroke-width="6" stroke-linecap="round"/>
<path d="M465.521 252.332C463.075 251.578 458.67 249.584 456.547 246.679C455.975 245.896 454.233 245.648 453.627 246.406C451.409 249.179 447.806 252.332 443.636 252.332" stroke="#9AD675" stroke-width="6" stroke-linecap="round"/>
<path d="M513.731 216.475C511.286 215.721 506.88 213.727 504.758 210.822C504.185 210.039 502.443 209.791 501.837 210.549C499.62 213.322 496.016 216.475 491.846 216.475" stroke="#9AD675" stroke-width="6" stroke-linecap="round"/>
<path d="M492.163 243.857C489.718 243.103 485.313 241.109 483.19 238.204C482.618 237.42 480.876 237.173 480.27 237.931C478.052 240.704 474.448 243.857 470.278 243.857" stroke="#9AD675" stroke-width="6" stroke-linecap="round"/>
<path d="M553.695 266.022C551.25 265.268 546.844 263.275 544.721 260.37C544.149 259.586 542.407 259.339 541.801 260.096C539.584 262.869 535.98 266.022 531.81 266.022" stroke="#9AD675" stroke-width="6" stroke-linecap="round"/>
<path d="M567.016 243.857C564.571 243.103 560.165 241.109 558.042 238.204C557.47 237.42 555.728 237.173 555.122 237.931C552.905 240.704 549.301 243.857 545.131 243.857" stroke="#9AD675" stroke-width="6" stroke-linecap="round"/>
<path d="M1218.57 940.317C1223.94 938.661 1234.23 933.899 1237.29 926.969C1237.68 926.082 1239.21 925.814 1239.76 926.612C1243.72 932.321 1251.49 940.317 1260.71 940.317" stroke="#9AD675" stroke-width="7" stroke-linecap="round"/>
<path d="M1191.71 976.715C1197.08 975.06 1207.36 970.298 1210.42 963.368C1210.82 962.481 1212.34 962.213 1212.89 963.011C1216.85 968.72 1224.63 976.715 1233.84 976.715" stroke="#9AD675" stroke-width="7" stroke-linecap="round"/>
<path d="M1158.73 956.633C1164.1 954.977 1174.38 950.215 1177.45 943.286C1177.84 942.398 1179.37 942.131 1179.92 942.929C1183.87 948.637 1191.65 956.633 1200.87 956.633" stroke="#9AD675" stroke-width="7" stroke-linecap="round"/>
<path d="M1130.64 993.032C1136.01 991.377 1146.3 986.614 1149.36 979.685C1149.75 978.798 1151.28 978.53 1151.83 979.328C1155.78 985.037 1163.56 993.032 1172.78 993.032" stroke="#9AD675" stroke-width="7" stroke-linecap="round"/>
<path d="M25.0669 698.707C22.1638 697.812 16.8478 695.391 14.5328 691.863C14.0005 691.052 12.3146 690.797 11.7222 691.566C9.21182 694.821 4.95516 698.707 0.000377238 698.707" stroke="#9AD675" stroke-width="6" stroke-linecap="round"/>
<path d="M41.0513 720.362C38.1481 719.467 32.8322 717.046 30.5171 713.518C29.9849 712.707 28.299 712.452 27.7066 713.22C25.1962 716.476 20.9395 720.362 15.9848 720.362" stroke="#9AD675" stroke-width="6" stroke-linecap="round"/>
<path d="M56.2031 706.707C53.3 705.812 47.984 703.391 45.669 699.863C45.1367 699.052 43.4509 698.797 42.8584 699.566C40.348 702.821 36.0914 706.707 31.1366 706.707" stroke="#9AD675" stroke-width="6" stroke-linecap="round"/>
<path d="M51.3835 1115.09C46.5561 1113.6 37.3719 1109.35 34.4463 1103.18C34.031 1102.3 32.4822 1102.04 31.9235 1102.83C28.2731 1108.01 21.2718 1115.09 12.9999 1115.09" stroke="#9AD675" stroke-width="7" stroke-linecap="round"/>
<path d="M100.962 981.864C96.1347 980.376 86.9505 976.132 84.0249 969.955C83.6096 969.078 82.0608 968.814 81.5021 969.608C77.8517 974.79 70.8504 981.864 62.5785 981.864" stroke="#9AD675" stroke-width="7" stroke-linecap="round"/>
<path d="M76.4849 1004.73C71.6574 1003.24 62.4732 999.001 59.5476 992.823C59.1323 991.947 57.5835 991.683 57.0249 992.476C53.3744 997.659 46.3731 1004.73 38.1012 1004.73" stroke="#9AD675" stroke-width="7" stroke-linecap="round"/>
<path d="M63.1345 1029.89C58.3071 1028.4 49.1229 1024.16 46.1972 1017.98C45.782 1017.1 44.2332 1016.84 43.6745 1017.63C40.0241 1022.81 33.0228 1029.89 24.7508 1029.89" stroke="#9AD675" stroke-width="7" stroke-linecap="round"/>
<path d="M66.6218 293.095C63.7187 292.2 58.4027 289.779 56.0877 286.251C55.5554 285.44 53.8696 285.186 53.2771 285.954C50.7667 289.209 46.5101 293.095 41.5553 293.095" stroke="#9AD675" stroke-width="6" stroke-linecap="round"/>
<path d="M57.1763 277.414C54.2731 276.519 48.9572 274.098 46.6421 270.57C46.1099 269.759 44.424 269.505 43.8316 270.273C41.3212 273.528 37.0645 277.414 32.1098 277.414" stroke="#9AD675" stroke-width="6" stroke-linecap="round"/>
<path d="M81.8799 267.707C78.9767 266.812 73.6608 264.391 71.3458 260.863C70.8135 260.052 69.1276 259.797 68.5352 260.566C66.0248 263.821 61.7681 267.707 56.8134 267.707" stroke="#9AD675" stroke-width="6" stroke-linecap="round"/>
</svg>
