<svg width="1801" height="1638" viewBox="0 0 1801 1638" fill="none" xmlns="http://www.w3.org/2000/svg">
<path fill-rule="evenodd" clip-rule="evenodd" d="M291.739 1559.19C194.182 1572.18 75.3386 1588.02 -0.000488281 1557.79V0H1801V1637.78C1676.94 1596.43 1384.03 1516.86 1204.81 1529.41C1094.5 1537.13 1015.72 1550.39 950.113 1561.43L950.112 1561.43H950.11C882.484 1572.81 828.841 1581.84 769.055 1580.03C720.13 1578.55 665.721 1571.53 610.383 1564.4C532.487 1554.35 452.75 1544.07 383.882 1548.66C357.67 1550.4 326.019 1554.62 291.739 1559.19Z" fill="#AFE0F9"/>
<ellipse cx="19.8973" cy="13.0787" rx="19.8973" ry="13.0787" transform="matrix(0.732957 -0.680275 0.671321 0.741167 1472.63 623.653)" fill="#8ACDEE"/>
<ellipse cx="39.392" cy="13.0753" rx="39.392" ry="13.0753" transform="matrix(-0.718245 -0.69579 0.686989 -0.726668 1777.64 405.472)" fill="#8ACDEE"/>
<ellipse cx="7.5267" cy="8.01698" rx="7.5267" ry="8.01698" transform="matrix(0.958683 -0.284478 0.27816 0.960535 1349.01 1433.84)" fill="#8ACDEE"/>
<ellipse cx="24.4963" cy="8.01698" rx="24.4963" ry="8.01698" transform="matrix(-0.958683 0.284478 0.27816 0.960535 67.5654 1288.72)" fill="#8ACDEE"/>
<ellipse cx="13.1776" cy="26.5327" rx="13.1776" ry="26.5327" transform="matrix(-0.789926 0.613202 0.603857 0.797093 580.24 1437.47)" fill="#8ACDEE"/>
<ellipse cx="15.4652" cy="14.1106" rx="15.4652" ry="14.1106" transform="matrix(-0.935427 -0.35352 -0.346033 0.938222 1077.71 389.426)" fill="#8ACDEE"/>
<path d="M636.177 167.569C632.425 177.744 636.701 188.758 645.729 192.17C654.758 195.582 665.119 190.099 668.871 179.924C672.624 169.75 668.347 158.735 659.319 155.323C650.291 151.911 639.93 157.394 636.177 167.569Z" fill="#8ACDEE"/>
<path d="M515.387 872.465C509.562 888.258 514.374 904.664 526.135 909.108C537.896 913.553 552.152 904.354 557.977 888.561C563.802 872.768 558.989 856.363 547.228 851.918C535.467 847.473 521.211 856.672 515.387 872.465Z" fill="#8ACDEE"/>
<ellipse cx="29.7844" cy="15.1888" rx="29.7844" ry="15.1888" transform="matrix(-0.984357 -0.176184 -0.172066 0.985085 1751.23 1501.95)" fill="#8ACDEE"/>
<ellipse cx="29.7841" cy="29.3817" rx="29.7841" ry="29.3817" transform="matrix(-0.984833 -0.173507 -0.169448 0.985539 751.993 1168.72)" fill="#8ACDEE"/>
<ellipse cx="40.9426" cy="22.687" rx="40.9426" ry="22.687" transform="matrix(-0.883324 0.468763 0.456461 0.889743 72.3306 468.542)" fill="#8ACDEE"/>
<ellipse cx="12.2603" cy="14.8093" rx="12.2603" ry="14.8093" transform="matrix(-0.901888 0.431971 0.423448 0.905921 130.319 779.112)" fill="#8ACDEE"/>
<ellipse cx="13.6539" cy="13.0787" rx="13.6539" ry="13.0787" transform="matrix(0.732957 -0.680275 0.671321 0.741167 605.399 210.312)" fill="#8ACDEE"/>
<ellipse cx="13.1776" cy="26.5327" rx="13.1776" ry="26.5327" transform="matrix(-0.789926 0.613202 0.603857 0.797093 1370.15 865.324)" fill="#8ACDEE"/>
<ellipse cx="39.7277" cy="12.9643" rx="39.7277" ry="12.9643" transform="matrix(-0.271406 -0.962465 0.96032 -0.278901 1494.24 1313.95)" fill="#8ACDEE"/>
<ellipse cx="10.617" cy="14.5552" rx="10.617" ry="14.5552" transform="matrix(-0.909297 -0.416148 -0.407806 0.913069 1429 955.769)" fill="#8ACDEE"/>
<path fill-rule="evenodd" clip-rule="evenodd" d="M1795.47 729.661C1779.38 726.263 1762.96 733.62 1756.35 748.292C1748.63 765.435 1757.23 786.072 1775.55 794.387C1782.08 797.349 1788.96 798.348 1795.47 797.631V729.661Z" fill="#8ACDEE"/>
<path d="M867.541 1049.35C930.602 1051.34 1285.3 1054.38 1309.04 1040.56C1332.78 1026.74 1335.31 993.244 1335.31 950.118V796.452C1335.31 767.98 1341.37 638.182 1335.31 553.603C1329.24 469.024 1294.39 474.468 1262.56 468.187C1230.74 461.906 1090.82 468.187 1019.08 468.187H765.501C717.513 468.187 602.339 464 558.392 464H180.037C114.368 464 99.214 496.659 99.214 507.964V692.195V866.376C99.214 890.243 78.4822 997.742 99.214 1026.74C115.379 1049.35 243.686 1042.23 270.458 1042.23C297.231 1042.23 486.661 1058.14 533.134 1049.35C579.608 1040.56 808.447 1047.48 867.541 1049.35Z" fill="#008CFF" stroke="#3B3B3B" stroke-width="7"/>
<path d="M744.14 1111.05C687.957 1110.17 371.955 1108.83 350.803 1114.94C329.651 1121.06 327.4 1135.87 327.4 1154.95V1222.93C327.4 1235.53 322 1292.95 327.4 1330.36C332.801 1367.78 363.854 1365.37 392.206 1368.15C420.559 1370.93 545.221 1368.15 609.127 1368.15H835.048C877.802 1368.15 980.412 1370 1019.57 1370H1356.65C1415.15 1370 1428.65 1355.55 1428.65 1350.55V1269.05V1192C1428.65 1181.44 1517.95 1095.38 1499.48 1082.55C1485.08 1072.55 1299.94 1114.2 1276.09 1114.2C1252.24 1114.2 1083.47 1107.16 1042.07 1111.05C1000.66 1114.94 796.787 1111.88 744.14 1111.05Z" fill="white" stroke="#3B3B3B" stroke-width="5"/>
</svg>
