<svg width="1600" height="1455" viewBox="0 0 1600 1455" fill="none" xmlns="http://www.w3.org/2000/svg">
<rect y="1312.05" width="1600" height="141.984" fill="#C5F4A8"/>
<path fill-rule="evenodd" clip-rule="evenodd" d="M259.18 1383.64C172.511 1395.18 66.9308 1409.22 0 1382.41V0.322754H1600V1453.38C1489.79 1416.69 1229.57 1346.09 1070.35 1357.22C972.348 1364.08 902.366 1375.84 844.078 1385.63L844.075 1385.64C783.996 1395.73 736.34 1403.74 683.225 1402.14C639.761 1400.82 591.424 1394.6 542.262 1388.27C473.06 1379.36 402.222 1370.23 341.04 1374.3C317.753 1375.85 289.634 1379.59 259.18 1383.64Z" fill="#AFE0F9"/>
<ellipse cx="17.6657" cy="11.6106" rx="17.6657" ry="11.6106" transform="matrix(0.733411 -0.679786 0.671814 0.74072 1308.28 553.631)" fill="#8ACDEE"/>
<ellipse cx="34.973" cy="11.6079" rx="34.973" ry="11.6079" transform="matrix(-0.71871 -0.69531 0.687474 -0.726209 1579.25 360.06)" fill="#8ACDEE"/>
<ellipse cx="6.68596" cy="7.11345" rx="6.68596" ry="7.11345" transform="matrix(0.958786 -0.284129 0.278504 0.960435 1198.46 1272.44)" fill="#8ACDEE"/>
<ellipse cx="21.76" cy="7.11345" rx="21.76" ry="7.11345" transform="matrix(-0.958786 0.284129 0.278504 0.960435 60.0254 1143.68)" fill="#8ACDEE"/>
<ellipse cx="11.701" cy="23.5515" rx="11.701" ry="23.5515" transform="matrix(-0.790324 0.61269 0.60437 0.796704 515.483 1275.66)" fill="#8ACDEE"/>
<ellipse cx="13.7369" cy="12.5211" rx="13.7369" ry="12.5211" transform="matrix(-0.935583 -0.353107 -0.346441 0.938072 957.437 345.823)" fill="#8ACDEE"/>
<path d="M565.177 148.99C561.843 158.017 565.643 167.789 573.663 170.816C581.684 173.843 590.888 168.979 594.222 159.952C597.556 150.925 593.757 141.153 585.736 138.126C577.716 135.099 568.511 139.963 565.177 148.99Z" fill="#8ACDEE"/>
<path d="M457.868 774.38C452.693 788.391 456.968 802.946 467.417 806.89C477.865 810.833 490.53 802.671 495.705 788.66C500.879 774.649 496.604 760.093 486.156 756.15C475.707 752.206 463.042 760.368 457.868 774.38Z" fill="#8ACDEE"/>
<ellipse cx="26.4592" cy="13.4761" rx="26.4592" ry="13.4761" transform="matrix(-0.984398 -0.175956 -0.17229 0.985046 1555.78 1332.86)" fill="#8ACDEE"/>
<ellipse cx="26.4589" cy="26.0686" rx="26.4589" ry="26.0686" transform="matrix(-0.984872 -0.173282 -0.169668 0.985501 668.068 1037.22)" fill="#8ACDEE"/>
<ellipse cx="36.3625" cy="20.1337" rx="36.3625" ry="20.1337" transform="matrix(-0.883583 0.468274 0.456945 0.889495 64.2598 416.016)" fill="#8ACDEE"/>
<ellipse cx="10.8892" cy="13.1421" rx="10.8892" ry="13.1421" transform="matrix(-0.902113 0.431501 0.423913 0.905703 115.777 691.556)" fill="#8ACDEE"/>
<ellipse cx="12.1226" cy="11.6106" rx="12.1226" ry="11.6106" transform="matrix(0.733487 -0.679703 0.671897 0.740645 537.833 186.913)" fill="#8ACDEE"/>
<ellipse cx="11.701" cy="23.5515" rx="11.701" ry="23.5515" transform="matrix(-0.790324 0.61269 0.60437 0.796704 1217.24 768.044)" fill="#8ACDEE"/>
<ellipse cx="35.2502" cy="11.5162" rx="35.2502" ry="11.5162" transform="matrix(-0.271743 -0.96237 0.96042 -0.278557 1327.48 1166.07)" fill="#8ACDEE"/>
<ellipse cx="9.42989" cy="12.9164" rx="9.42989" ry="12.9164" transform="matrix(-0.909507 -0.415688 -0.408261 0.912865 1269.52 848.288)" fill="#8ACDEE"/>
<path fill-rule="evenodd" clip-rule="evenodd" d="M1595.09 647.683C1580.8 644.668 1566.21 651.195 1560.34 664.212C1553.48 679.421 1561.11 697.731 1577.39 705.108C1583.19 707.737 1589.31 708.623 1595.09 707.986V647.683Z" fill="#8ACDEE"/>
</svg>
