<svg width="2218" height="280" viewBox="0 0 2218 280" fill="none" xmlns="http://www.w3.org/2000/svg">
<path d="M1677.07 227.076L1677.08 227.077L1677.09 227.077C1693.04 228.304 1708.45 229.486 1723.41 230.632C1913.32 245.189 2028.92 254.05 2216.5 278.293V64.763C2042.77 25.0677 1952.09 16.1372 1739.33 6.79349C1526.1 -2.57114 1322.21 -1.06131 1122.28 24.0314C866.471 63.2269 721.419 53.7976 516.735 32.6376C312.769 11.5519 147.609 9.56741 1.5 32.4285V272.062C74.8764 271.982 140.497 265.994 206.335 259.986C226.981 258.102 247.649 256.216 268.583 254.51C356.708 247.327 449.441 243.343 564.888 256.162C755.157 277.288 873.399 278.45 1110.78 256.162C1306.2 229.335 1441.03 211.258 1677.07 227.076Z" fill="#3D9E31" stroke="black" stroke-width="3"/>
<path d="M0 247.5C88 257 390.534 209.391 560.326 233.138C744.857 258.945 861.325 250.264 1092.86 233.138C1283.37 212.535 1410.93 192.374 1640.91 204.515C1854.5 217.464 1998.5 225.5 2218 255.5L2217.01 88.466C2053 51.6393 1901.5 29.6719 1686.76 29.6719C1472.02 29.6719 1287.89 32.3543 1092.86 51.6393C858.89 89.8281 640.49 79.9131 501.261 51.6393C362.032 23.3656 54 32 0 59C2.74181e-05 74 0 247.5 0 247.5Z" fill="white"/>
</svg>
