<svg width="1078" height="640" viewBox="0 0 1078 640" fill="none" xmlns="http://www.w3.org/2000/svg">
<path d="M985.848 5.7202C958.852 -4.9595 749.884 37.1971 695.893 46.7526C617.549 60.6179 529.918 64.521 502.923 77.1056C482.426 86.6605 478.426 93.3506 450.431 99.0265C417.729 105.656 381.402 94.3001 308.893 94.3001C291.395 94.3001 94.9908 77.8117 65.4904 86.6605C42.0541 93.6904 29.9959 101.275 22.997 119.262C13.8562 142.753 8.9992 238.195 12.4987 274.731C15.9981 311.267 4 396.934 4 453.143C4 509.352 22.997 591.946 79.9882 621.174C134.114 648.933 398.528 629.494 409.437 627.919C483.426 617.24 484.115 582.6 492.924 593.104C520.42 625.886 549.963 617.261 605.407 611.066C667.397 604.14 796.384 595.88 925.357 570.024C1056.84 543.665 1081.33 555.41 1072.33 444.688C1067.9 390.103 1031.34 135.563 1024.84 115.89C1018.34 96.2166 1012.84 16.3999 985.848 5.7202Z" fill="#FFB6D4" stroke="#3B3B3B" stroke-width="7" stroke-linecap="round"/>
<path fill-rule="evenodd" clip-rule="evenodd" d="M461.324 117.102C470.36 104.327 626.089 83.1257 653.92 80.5344C680 78.1062 780.965 68.452 800.459 58.231C814.639 50.7962 863.26 48.903 893.229 47.7361C904.46 47.2988 913.072 46.9635 916.27 46.4767C917.977 46.2169 920.611 45.6916 923.896 45.0366C943.182 41.1909 984.878 32.8765 992.844 47.6028C1001.77 64.101 1004.9 117.561 1006.9 151.653C1007.58 163.236 1008.13 172.583 1008.73 177.485L1025.98 318.559L1044.22 467.771C1045.34 476.927 1041.93 504.389 1013.16 508.769L847.36 534.004C837.943 535.437 820.963 537.195 803.61 538.992C785.476 540.87 766.935 542.79 756.189 544.426L645.068 561.339C635.013 562.869 621.964 565.385 608.388 568.003C579.525 573.569 548.281 579.594 538.373 577.578C536.708 577.239 535.041 577.027 533.377 576.815C520.486 575.175 507.81 573.562 498.039 513.249C489.579 461.028 481.609 386.794 477.081 344.619C475.704 331.796 474.646 321.936 473.988 316.56L473.785 314.898C473.712 316.386 473.64 317.833 473.571 319.235C473.067 329.437 472.679 337.282 472.531 341.572C472.247 349.821 470.857 362.504 469.323 376.498C467.435 393.722 465.329 412.932 464.798 428.31C463.837 456.182 462.194 477.792 453.465 486.36C444.736 494.928 322.246 497.846 300.975 497.891C290.522 497.914 266.392 496.641 242.151 495.362C217.685 494.072 193.107 492.775 182.361 492.798C171.413 492.822 140.557 489.495 117.128 486.968C103.753 485.526 92.7984 484.345 89.3475 484.197C87.9655 484.138 85.8176 484.143 83.1397 484.15C67.4156 484.189 33.4205 484.273 28.952 471.577C23.9458 457.352 28.1083 415.216 30.7627 388.345C31.6646 379.215 32.3923 371.847 32.5273 367.936L36.4107 255.365L40.5181 136.3C40.7701 128.993 46.8735 108.117 70.1665 109.117L204.37 114.88C211.993 115.207 225.634 116.441 239.576 117.702C254.145 119.02 269.041 120.367 277.739 120.741L367.685 124.603C375.824 124.952 386.452 124.993 397.51 125.035C421.019 125.124 446.466 125.221 454.049 128.311C454.87 128.646 455.699 128.94 456.529 129.219C457.526 124.353 459.078 120.278 461.324 117.102Z" fill="white"/>
<path d="M653.92 80.5344L653.781 79.0409L653.781 79.0409L653.92 80.5344ZM461.324 117.102L462.549 117.968L462.549 117.968L461.324 117.102ZM800.459 58.231L801.155 59.5594L801.155 59.5594L800.459 58.231ZM893.229 47.7361L893.171 46.2372L893.171 46.2372L893.229 47.7361ZM916.27 46.4767L916.044 44.9938L916.044 44.9938L916.27 46.4767ZM923.896 45.0366L924.189 46.5077L924.189 46.5076L923.896 45.0366ZM992.844 47.6028L991.525 48.3164L991.525 48.3164L992.844 47.6028ZM1006.9 151.653L1008.4 151.565L1008.4 151.565L1006.9 151.653ZM1008.73 177.485L1010.21 177.303L1010.21 177.303L1008.73 177.485ZM1025.98 318.559L1027.46 318.377L1025.98 318.559ZM1044.22 467.771L1045.71 467.589L1045.71 467.589L1044.22 467.771ZM1013.16 508.769L1013.38 510.252L1013.16 508.769ZM847.36 534.004L847.586 535.486L847.586 535.486L847.36 534.004ZM803.61 538.992L803.455 537.5L803.455 537.5L803.61 538.992ZM756.189 544.426L755.963 542.943L755.963 542.943L756.189 544.426ZM645.068 561.339L645.293 562.821L645.293 562.821L645.068 561.339ZM608.388 568.003L608.104 566.53L608.104 566.53L608.388 568.003ZM538.373 577.578L538.074 579.047L538.074 579.047L538.373 577.578ZM533.377 576.815L533.188 578.303L533.188 578.303L533.377 576.815ZM498.039 513.249L496.558 513.489L496.558 513.489L498.039 513.249ZM477.081 344.619L478.572 344.459L478.572 344.459L477.081 344.619ZM473.988 316.56L475.477 316.378L475.477 316.378L473.988 316.56ZM473.785 314.898L475.274 314.716L472.287 314.824L473.785 314.898ZM473.571 319.235L472.073 319.161L472.073 319.161L473.571 319.235ZM472.531 341.572L471.032 341.52L471.032 341.52L472.531 341.572ZM469.323 376.498L467.831 376.335L467.831 376.335L469.323 376.498ZM464.798 428.31L463.299 428.258L463.299 428.258L464.798 428.31ZM453.465 486.36L454.516 487.431L454.516 487.431L453.465 486.36ZM300.975 497.891L300.979 499.391L300.979 499.391L300.975 497.891ZM242.151 495.362L242.23 493.864L242.23 493.864L242.151 495.362ZM182.361 492.798L182.357 491.298L182.357 491.298L182.361 492.798ZM117.128 486.968L117.288 485.477L117.288 485.477L117.128 486.968ZM89.3475 484.197L89.4118 482.698L89.4118 482.698L89.3475 484.197ZM83.1397 484.15L83.1434 485.65L83.1434 485.65L83.1397 484.15ZM28.952 471.577L27.5371 472.075L27.5371 472.075L28.952 471.577ZM30.7627 388.345L32.2554 388.492L32.2554 388.492L30.7627 388.345ZM32.5273 367.936L34.0264 367.988L34.0264 367.988L32.5273 367.936ZM36.4107 255.365L37.9098 255.417L36.4107 255.365ZM40.5181 136.3L42.0172 136.351L42.0172 136.351L40.5181 136.3ZM70.1665 109.117L70.2308 107.619L70.1665 109.117ZM204.37 114.88L204.434 113.382L204.434 113.382L204.37 114.88ZM239.576 117.702L239.711 116.208L239.711 116.208L239.576 117.702ZM277.739 120.741L277.674 122.239L277.674 122.239L277.739 120.741ZM367.685 124.603L367.75 123.104L367.75 123.104L367.685 124.603ZM397.51 125.035L397.515 123.535L397.515 123.535L397.51 125.035ZM454.049 128.311L454.615 126.922L454.615 126.922L454.049 128.311ZM456.529 129.219L456.051 130.641L457.658 131.181L457.999 129.52L456.529 129.219ZM653.781 79.0409C639.817 80.341 593.888 86.2953 550.328 93.5196C528.547 97.132 507.326 101.067 490.973 104.903C482.801 106.82 475.809 108.72 470.558 110.553C467.935 111.469 465.71 112.38 463.977 113.285C462.294 114.163 460.882 115.13 460.1 116.236L462.549 117.968C462.896 117.477 463.76 116.781 465.364 115.944C466.918 115.133 468.993 114.277 471.547 113.385C476.651 111.604 483.525 109.731 491.658 107.824C507.915 104.01 529.06 100.088 550.819 96.4792C594.341 89.2612 640.192 83.319 654.059 82.0279L653.781 79.0409ZM799.762 56.9025C795.12 59.3365 785.38 61.8249 772.727 64.2124C760.154 66.585 744.924 68.8215 729.467 70.8173C698.557 74.8084 666.818 77.827 653.781 79.0409L654.059 82.0279C667.102 80.8136 698.885 77.7909 729.851 73.7926C745.332 71.7937 760.628 69.5485 773.284 67.1604C785.86 64.7872 796.051 62.2359 801.155 59.5594L799.762 56.9025ZM893.171 46.2372C878.193 46.8204 858.508 47.5866 840.792 49.1388C831.934 49.9149 823.542 50.8896 816.461 52.1416C809.423 53.3859 803.527 54.9285 799.762 56.9025L801.155 59.5594C804.48 57.8161 809.98 56.3339 816.983 55.0958C823.943 53.8653 832.238 52.8998 841.054 52.1273C858.685 50.5826 878.296 49.8187 893.287 49.235L893.171 46.2372ZM916.044 44.9938C912.954 45.464 904.47 45.7973 893.171 46.2372L893.287 49.235C904.449 48.8004 913.189 48.463 916.495 47.9597L916.044 44.9938ZM923.603 43.5656C920.3 44.224 917.708 44.7405 916.044 44.9938L916.495 47.9597C918.245 47.6933 920.922 47.1591 924.189 46.5077L923.603 43.5656ZM994.163 46.8891C991.869 42.6478 987.255 40.2563 981.76 38.9868C976.232 37.7099 969.511 37.4949 962.537 37.8572C948.58 38.5823 933.229 41.6461 923.603 43.5656L924.189 46.5076C933.849 44.5814 948.989 41.5651 962.693 40.8532C969.55 40.4969 975.952 40.7242 981.085 41.9099C986.25 43.1031 989.836 45.1946 991.525 48.3164L994.163 46.8891ZM1008.4 151.565C1007.4 134.526 1006.11 112.6 1003.96 92.8674C1002.88 83.0011 1001.59 73.6574 999.995 65.7311C998.41 57.8419 996.507 51.2214 994.163 46.8891L991.525 48.3164C993.643 52.2332 995.479 58.4821 997.054 66.322C998.621 74.1249 999.906 83.3703 1000.98 93.1928C1003.12 112.838 1004.4 134.687 1005.4 151.74L1008.4 151.565ZM1010.21 177.303C1009.62 172.461 1009.08 163.178 1008.4 151.565L1005.4 151.74C1006.08 163.293 1006.63 172.705 1007.24 177.667L1010.21 177.303ZM1027.46 318.377L1010.21 177.303L1007.24 177.667L1024.49 318.741L1027.46 318.377ZM1045.71 467.589L1027.46 318.377L1024.49 318.741L1042.73 467.953L1045.71 467.589ZM1013.38 510.252C1028.31 507.98 1036.74 499.673 1041.24 490.736C1045.7 481.881 1046.3 472.423 1045.71 467.589L1042.73 467.953C1043.26 472.276 1042.72 481.126 1038.56 489.387C1034.44 497.564 1026.78 505.178 1012.93 507.286L1013.38 510.252ZM847.586 535.486L1013.38 510.252L1012.93 507.286L847.135 532.521L847.586 535.486ZM803.764 540.484C821.097 538.689 838.124 536.927 847.586 535.486L847.135 532.521C837.762 533.947 820.829 535.701 803.455 537.5L803.764 540.484ZM756.415 545.909C767.116 544.28 785.612 542.364 803.764 540.484L803.455 537.5C785.341 539.376 766.754 541.3 755.963 542.943L756.415 545.909ZM645.293 562.821L756.415 545.909L755.963 542.943L644.842 559.856L645.293 562.821ZM608.673 569.476C622.259 566.856 635.274 564.346 645.293 562.821L644.842 559.856C634.751 561.391 621.669 563.914 608.104 566.53L608.673 569.476ZM538.074 579.047C540.772 579.596 544.763 579.58 549.549 579.21C554.377 578.838 560.155 578.094 566.501 577.116C579.192 575.161 594.249 572.257 608.673 569.476L608.104 566.53C593.665 569.315 578.668 572.206 566.044 574.151C559.732 575.123 554.038 575.855 549.319 576.219C544.558 576.586 540.929 576.567 538.672 576.108L538.074 579.047ZM533.188 578.303C534.86 578.516 536.473 578.722 538.074 579.047L538.672 576.108C536.944 575.756 535.221 575.537 533.566 575.327L533.188 578.303ZM496.558 513.489C501.447 543.668 507.099 559.465 513.33 567.924C516.482 572.202 519.792 574.62 523.21 576.055C526.581 577.471 529.992 577.896 533.188 578.303L533.566 575.327C530.316 574.913 527.308 574.522 524.372 573.289C521.482 572.076 518.596 570.014 515.746 566.145C509.973 558.309 504.402 543.144 499.519 513.009L496.558 513.489ZM475.59 344.779C480.116 386.942 488.09 461.22 496.558 513.489L499.519 513.009C491.067 460.836 483.102 386.646 478.572 344.459L475.59 344.779ZM472.5 316.742C473.155 322.104 474.212 331.949 475.59 344.779L478.572 344.459C477.197 331.643 476.137 321.768 475.477 316.378L472.5 316.742ZM472.296 315.08L472.5 316.742L475.477 316.378L475.274 314.716L472.296 315.08ZM475.069 319.309C475.139 317.907 475.21 316.46 475.283 314.972L472.287 314.824C472.214 316.312 472.142 317.759 472.073 319.161L475.069 319.309ZM474.03 341.624C474.178 337.348 474.565 329.518 475.069 319.309L472.073 319.161C471.569 329.356 471.181 337.216 471.032 341.52L474.03 341.624ZM470.814 376.662C472.345 362.695 473.743 349.943 474.03 341.624L471.032 341.52C470.75 349.699 469.368 362.313 467.831 376.335L470.814 376.662ZM466.298 428.362C466.826 413.052 468.924 393.902 470.814 376.662L467.831 376.335C465.945 393.541 463.832 412.813 463.299 428.258L466.298 428.362ZM454.516 487.431C459.249 482.784 461.897 474.81 463.525 464.815C465.164 454.752 465.817 442.293 466.298 428.362L463.299 428.258C462.818 442.199 462.169 454.481 460.564 464.333C458.948 474.253 456.41 481.368 452.414 485.29L454.516 487.431ZM300.979 499.391C311.641 499.369 347.607 498.627 382.002 496.82C399.198 495.916 416.028 494.745 429.116 493.261C435.656 492.519 441.295 491.696 445.591 490.781C447.737 490.324 449.582 489.837 451.051 489.314C452.469 488.809 453.724 488.208 454.516 487.431L452.414 485.29C452.115 485.583 451.39 486.009 450.044 486.488C448.749 486.949 447.047 487.404 444.966 487.847C440.81 488.732 435.281 489.542 428.778 490.28C415.78 491.754 399.021 492.921 381.845 493.824C347.495 495.629 311.581 496.369 300.972 496.391L300.979 499.391ZM242.072 496.86C266.284 498.137 290.472 499.414 300.979 499.391L300.972 496.391C290.572 496.414 266.5 495.145 242.23 493.864L242.072 496.86ZM182.364 494.298C193.057 494.275 217.578 495.568 242.072 496.86L242.23 493.864C217.793 492.575 193.156 491.275 182.357 491.298L182.364 494.298ZM116.967 488.46C140.334 490.979 171.309 494.322 182.364 494.298L182.357 491.298C171.516 491.321 140.78 488.01 117.288 485.477L116.967 488.46ZM89.2831 485.696C92.6706 485.841 103.55 487.013 116.967 488.46L117.288 485.477C103.956 484.04 92.9262 482.849 89.4118 482.698L89.2831 485.696ZM83.1434 485.65C85.8391 485.643 87.9441 485.638 89.2831 485.696L89.4118 482.698C87.987 482.637 85.796 482.643 83.1359 482.65L83.1434 485.65ZM27.5371 472.075C28.8585 475.829 32.2824 478.436 36.4915 480.277C40.7328 482.133 46.0458 483.335 51.6146 484.124C62.7612 485.703 75.2979 485.669 83.1434 485.65L83.1359 482.65C75.2574 482.669 62.9344 482.697 52.0353 481.154C46.5814 480.381 41.5749 479.227 37.694 477.529C33.7809 475.817 31.2797 473.672 30.3669 471.079L27.5371 472.075ZM29.2699 388.197C27.9434 401.626 26.2351 418.916 25.4863 434.632C25.1119 442.49 24.976 449.98 25.251 456.414C25.5244 462.811 26.2079 468.298 27.5371 472.075L30.3669 471.079C29.193 467.743 28.5194 462.629 28.2483 456.286C27.9787 449.978 28.1106 442.588 28.4829 434.775C29.2274 419.148 30.9275 401.935 32.2554 388.492L29.2699 388.197ZM31.0282 367.884C30.8954 371.734 30.1748 379.037 29.2699 388.197L32.2554 388.492C33.1543 379.393 33.8893 371.961 34.0264 367.988L31.0282 367.884ZM34.9115 255.313L31.0282 367.884L34.0264 367.988L37.9098 255.417L34.9115 255.313ZM39.0189 136.248L34.9115 255.313L37.9098 255.417L42.0172 136.351L39.0189 136.248ZM70.2308 107.619C58.0424 107.095 50.2358 112.33 45.4984 118.698C40.8224 124.984 39.1539 132.335 39.0189 136.248L42.0172 136.351C42.1342 132.958 43.6435 126.218 47.9054 120.489C52.106 114.842 58.9976 110.139 70.1021 110.616L70.2308 107.619ZM204.434 113.382L70.2308 107.619L70.1021 110.616L204.305 116.379L204.434 113.382ZM239.711 116.208C225.789 114.949 212.102 113.711 204.434 113.382L204.305 116.379C211.883 116.704 225.479 117.933 239.441 119.196L239.711 116.208ZM277.803 119.242C269.15 118.87 254.299 117.528 239.711 116.208L239.441 119.196C253.991 120.512 268.932 121.864 277.674 122.239L277.803 119.242ZM367.75 123.104L277.803 119.242L277.674 122.239L367.621 126.102L367.75 123.104ZM397.515 123.535C386.447 123.493 375.853 123.452 367.75 123.104L367.621 126.102C375.796 126.453 386.458 126.493 397.504 126.535L397.515 123.535ZM454.615 126.922C452.516 126.067 449.329 125.465 445.495 125.018C441.623 124.567 436.954 124.261 431.813 124.049C421.531 123.626 409.262 123.58 397.515 123.535L397.504 126.535C409.266 126.58 421.475 126.626 431.69 127.047C436.797 127.257 441.382 127.559 445.148 127.998C448.953 128.442 451.79 129.011 453.482 129.7L454.615 126.922ZM457.007 127.797C456.191 127.523 455.395 127.24 454.615 126.922L453.482 129.7C454.345 130.052 455.206 130.357 456.051 130.641L457.007 127.797ZM460.1 116.236C457.695 119.635 456.083 123.925 455.06 128.918L457.999 129.52C458.97 124.78 460.46 120.921 462.549 117.968L460.1 116.236Z" fill="#3B3B3B"/>
</svg>
