<svg width="1246" height="713" viewBox="0 0 1246 713" fill="none" xmlns="http://www.w3.org/2000/svg">
<path d="M470.667 8.16368C408.248 5.78301 57.1667 2.16357 33.6667 18.6636C10.1667 35.1636 7.66667 75.1636 7.66667 126.664V310.164C7.66667 344.164 1.66667 499.164 7.66667 600.164C13.6667 701.164 48.1667 694.664 79.6667 702.164C111.167 709.664 249.667 702.164 320.667 702.164H571.667C619.167 702.164 733.167 707.164 776.667 707.164H1151.17C1216.17 707.164 1231.17 668.164 1231.17 654.664V434.664V226.664C1231.17 198.164 1251.69 69.7924 1231.17 35.1636C1215.17 8.16368 1088.17 16.6638 1061.67 16.6638C1035.17 16.6638 847.667 -2.33623 801.667 8.16368C755.667 18.6636 529.158 10.3946 470.667 8.16368Z" fill="#E2F0F7" stroke="#3B3B3B" stroke-width="10"/>
</svg>
