<svg width="899" height="426" viewBox="0 0 899 426" fill="none" xmlns="http://www.w3.org/2000/svg">
<path d="M559.119 420.117C604.142 421.534 857.373 423.689 874.323 413.866C891.273 404.044 893.077 380.231 893.077 349.573V240.335C893.077 220.095 897.404 127.823 893.077 67.6974C888.749 7.57181 863.864 11.4413 841.144 6.9765C818.423 2.51175 718.524 6.9765 667.313 6.9765H486.269C452.008 6.9765 369.781 4 338.405 4H68.2816C21.3977 4 10.5784 27.2168 10.5784 35.2534V166.22V290.043C10.5784 307.009 -4.22302 383.429 10.5784 404.044C22.1189 420.117 113.723 415.057 132.837 415.057C151.951 415.057 287.193 426.367 320.372 420.117C353.552 413.866 516.93 418.789 559.119 420.117Z" fill="#008CFF" stroke="#3B3B3B" stroke-width="7"/>
</svg>
